<?xml version="1.0" encoding="UTF-8" standalone="no"?>
<!DOCTYPE svg  PUBLIC '-//W3C//DTD SVG 1.1//EN'  'http://www.w3.org/Graphics/SVG/1.1/DTD/svg11.dtd'>
<svg xmlns="http://www.w3.org/2000/svg">
<defs>
<font id="HelveticaNeueLTPro-ExO" horiz-adv-x="668">
<font-face slope="-12" underline-position="-50" font-weight="400" descent="-200" panose-1="2 11 6 5 2 2 2 2 2 4" units-per-em="1000" unicode-range="U+0020-25CA" bbox="-160 -220 1264 987" x-height="524" underline-thickness="50" font-family="HelveticaNeueLT Pro 53 Ex" ascent="800" font-style="italic" cap-height="714"/>
<missing-glyph horiz-adv-x="1000"/>
<glyph glyph-name=".notdef" horiz-adv-x="1000"/>
<glyph glyph-name=".null" horiz-adv-x="1000"/>
<glyph glyph-name=".null" horiz-adv-x="1000"/>
<glyph glyph-name="nonmarkingreturn" horiz-adv-x="333"/>
<glyph glyph-name="space" horiz-adv-x="334" unicode=" "/>
<glyph glyph-name="exclam" horiz-adv-x="334" unicode="!" d="M105 0l24 116h124l-24 -116h-124zM177 188l43 339l39 187h112l-39 -187l-97 -339h-58z"/>
<glyph glyph-name="quotedbl" horiz-adv-x="481" unicode='&quot;' d="M386 445l56 269h84l-56 -269h-84zM195 445l56 269h84l-56 -269h-84z"/>
<glyph glyph-name="numbersign" d="M439 274l51 146h-118l-51 -146h118zM250 274l51 146h-94l14 66h103l72 208h71l-72 -208h118l72 208h71l-72 -208h94l-14 -66h-103l-51 -146h94l-13 -66h-103l-72 -208h-71l72 208h-118l-72 -208h-71l72 208h-94l13 66h103z" unicode="#"/>
<glyph glyph-name="dollar" d="M319 68l50 244q-45 7 -77.5 16t-67.5 26t-53.5 46t-18.5 68q0 17 5 42q14 68 63 115t108.5 66t123.5 19l19 89h48l-19 -89q113 -2 167 -46t54 -120q0 -9 -2 -29h-100q0 2 0.5 6.5t0.5 6.5q0 92 -137 98l-47 -225q126 -22 183 -58.5t57 -103.5q0 -25 -5 -46 q-15 -71 -66.5 -119.5t-116.5 -69t-139 -20.5l-18 -89h-48l18 89q-100 0 -163.5 46t-63.5 130q0 19 5 46h100q-1 -6 -1 -19q0 -111 141 -119zM389 407l46 219q-155 -8 -177 -109q-2 -12 -2 -18q0 -77 133 -92zM415 303l-48 -235q87 0 139 32t62 82q2 8 2 23q0 40 -36.5 64 t-118.5 34z" unicode="$"/>
<glyph glyph-name="percent" horiz-adv-x="1000" unicode="%" d="M893 179q5 22 5 48q0 81 -73 81q-46 0 -77.5 -33t-44.5 -96q-6 -27 -6 -49q0 -80 74 -80q93 0 122 129zM619 179q19 89 75 142t144 53q73 0 109.5 -36.5t36.5 -100.5q0 -21 -7 -58q-19 -89 -75.5 -142t-144.5 -53q-73 0 -109 36t-36 100q0 22 7 59zM441 515q5 28 5 47 q0 82 -74 82q-46 0 -77 -33t-44 -96q-6 -27 -6 -49q0 -80 74 -80q93 0 122 129zM167 515q19 89 75 142t144 53q73 0 109.5 -36.5t36.5 -100.5q0 -21 -7 -58q-19 -89 -75.5 -142t-144.5 -53q-73 0 -109 36t-36 100q0 22 7 59zM256 -16l548 726h84l-548 -726h-84z"/>
<glyph glyph-name="ampersand" horiz-adv-x="815" unicode="&amp;" d="M698 0l-70 81q-48 -48 -122 -73.5t-152 -25.5q-127 0 -185 49t-58 122q0 19 5 42q32 148 230 213q-51 56 -51 115q0 17 3 30q15 73 73 117t146 44q73 0 112.5 -35.5t39.5 -90.5q0 -14 -3 -29q-26 -111 -173 -166l153 -175q35 43 56 111h94q-27 -101 -95 -174l136 -155 h-139zM394 558q-2 -10 -2 -16q0 -34 53 -96q112 42 125 107q2 10 2 15q0 26 -19.5 44t-52.5 18q-45 0 -72.5 -21t-33.5 -51zM574 139l-182 213q-85 -34 -122.5 -70.5t-46.5 -83.5q-3 -12 -3 -26q0 -44 36.5 -75t119.5 -31q129 0 198 73z"/>
<glyph glyph-name="quotesingle" horiz-adv-x="334" unicode="&apos;" d="M217 445l56 269h84l-56 -269h-84z"/>
<glyph glyph-name="parenleft" horiz-adv-x="407" unicode="(" d="M337 -190h-75q-119 158 -119 333q0 60 13 119q51 245 294 452h75q-91 -78 -166 -198t-103 -254q-14 -66 -14 -135q0 -95 26 -178t69 -139z"/>
<glyph glyph-name="parenright" horiz-adv-x="407" unicode=")" d="M65 -190h-74q90 77 165 197.5t103 254.5q14 64 14 134q0 95 -26 178t-69 140h75q119 -158 119 -333q0 -60 -13 -119q-51 -245 -294 -452z"/>
<glyph glyph-name="asterisk" horiz-adv-x="463" unicode="*" d="M282 520l-118 50l42 66l111 -49l26 127h72l-26 -127l134 49l12 -66l-139 -50l76 -97l-63 -45l-78 103l-120 -103l-42 45z"/>
<glyph glyph-name="plus" horiz-adv-x="600" unicode="+" d="M319 295l44 211h84l-44 -211h211l-18 -84h-211l-43 -211h-84l43 211h-211l18 84h211z"/>
<glyph glyph-name="comma" horiz-adv-x="334" unicode="," d="M105 0l24 116h124l-22 -102q-13 -64 -53 -110t-105 -57l10 49q32 9 51 32.5t31 71.5h-60z"/>
<glyph glyph-name="hyphen" horiz-adv-x="481" unicode="-" d="M111 226l22 104h351l-22 -104h-351z"/>
<glyph glyph-name="period" horiz-adv-x="334" unicode="." d="M105 0l24 116h124l-24 -116h-124z"/>
<glyph glyph-name="slash" horiz-adv-x="406" unicode="/" d="M-3 -18l467 750h94l-468 -750h-93z"/>
<glyph glyph-name="zero" d="M117 347q16 78 43.5 141.5t70.5 114.5t106.5 79t143.5 28q229 0 229 -232q0 -54 -15 -131q-78 -363 -365 -363q-229 0 -229 230q0 58 16 133zM589 347q13 63 13 115q0 164 -138 164q-49 0 -89.5 -21.5t-65 -52t-44 -72t-28 -72t-14.5 -61.5q-14 -56 -14 -112 q0 -167 139 -167q49 0 89.5 22.5t64 50.5t43.5 73t27.5 70.5t16.5 62.5z" unicode="0"/>
<glyph glyph-name="one" horiz-adv-x="444" unicode="1" d="M199 0l104 505h-209l17 78h24q199 0 235 131h83l-148 -714h-106z"/>
<glyph glyph-name="two" d="M241 459h-100q23 115 106 183t221 68q111 0 166.5 -46.5t55.5 -124.5q0 -25 -6 -52q-15 -68 -61 -118.5t-107 -81t-123.5 -56t-122 -60.5t-89.5 -79h421l-19 -92h-550q18 66 55.5 118.5t83.5 85.5t98.5 60t102.5 49.5t92.5 45.5t73 55.5t39.5 73.5q4 17 4 37 q0 51 -34.5 76t-90.5 25q-175 0 -216 -167z" unicode="2"/>
<glyph glyph-name="three" d="M323 323l18 87q7 -1 24 -1h43q136 0 157 102q3 15 3 27q0 47 -37 67.5t-94 20.5q-152 0 -191 -146h-100q29 115 111.5 172.5t199.5 57.5q111 0 165 -43t54 -110q0 -21 -4 -38q-10 -51 -44.5 -90t-88.5 -53l-1 -2q49 -10 77 -44t28 -85q0 -21 -4 -38q-19 -96 -102 -159.5 t-217 -63.5q-253 0 -253 176q0 29 7 60h100q-3 -19 -3 -37q0 -63 41 -89t117 -26q84 0 137 35.5t65 96.5q3 14 3 25q0 48 -41 74t-111 26q-21 0 -39 -1t-20 -1z" unicode="3"/>
<glyph glyph-name="four" d="M453 253l67 321h-2l-330 -321h265zM401 0l35 169h-365l19 92l471 453h88l-96 -461h122l-17 -84h-122l-35 -169h-100z" unicode="4"/>
<glyph glyph-name="five" d="M132 319l142 375h427l-19 -92h-352l-74 -189q81 50 182 50q42 0 79.5 -9t71.5 -28t54 -54.5t20 -83.5q0 -26 -6 -57q-24 -113 -116.5 -180t-227.5 -67q-108 0 -171 48t-63 124q0 15 3 30h103q2 -64 38 -91t116 -27q49 0 89 13t75 50t47 96q4 17 4 37q0 58 -40 86.5 t-108 28.5q-110 0 -179 -66z" unicode="5"/>
<glyph glyph-name="six" d="M568 224q4 17 4 38q0 53 -36.5 85.5t-109.5 32.5q-87 0 -140.5 -44t-68.5 -112q-4 -17 -4 -38q0 -53 37 -85.5t111 -32.5q86 0 139 43.5t68 112.5zM714 530h-100q1 46 -32.5 71t-86.5 25q-96 0 -160.5 -54.5t-103.5 -199.5h2q28 37 90 64.5t133 27.5q93 0 159 -43 t66 -136q0 -22 -7 -59q-9 -42 -33 -82.5t-63 -77.5t-99.5 -59.5t-131.5 -22.5q-239 0 -239 223q0 57 15 126q16 75 41.5 135t52.5 99t62.5 67t65 42.5t65.5 22.5t58 9.5t49 1.5q34 0 65.5 -7.5t63 -24.5t50.5 -50.5t19 -79.5q0 -3 -0.5 -9t-0.5 -9z" unicode="6"/>
<glyph glyph-name="seven" horiz-adv-x="593" unicode="7" d="M140 596l21 98h539l-19 -88q-147 -147 -249 -290t-176 -316h-111q73 161 188.5 318.5t246.5 277.5h-440z"/>
<glyph glyph-name="eight" d="M89 206q8 41 31.5 74.5t52.5 53t53.5 30.5t42.5 15l1 2q-87 36 -87 108q0 16 5 38q18 87 95.5 135t198.5 48q107 0 164 -37t57 -107q0 -20 -4 -39q-24 -106 -141 -146l-1 -2q52 -10 81.5 -43.5t29.5 -86.5q0 -18 -5 -43q-8 -38 -28 -73t-56.5 -70.5t-100.5 -57 t-148 -21.5q-70 0 -120.5 15.5t-76.5 42t-37.5 55.5t-11.5 63q0 23 5 46zM592 522q2 12 2 18q0 37 -32 61.5t-97 24.5q-72 0 -117.5 -31t-54.5 -73q-2 -12 -2 -17q0 -38 32 -62.5t98 -24.5q73 0 118 30.5t53 73.5zM556 201q3 15 3 29q0 47 -38 75.5t-118 28.5 q-93 0 -144.5 -37t-64.5 -96q-2 -9 -2 -26q0 -48 37.5 -77.5t118.5 -29.5q92 0 144.5 37.5t63.5 95.5z" unicode="8"/>
<glyph glyph-name="nine" d="M594 470q4 17 4 39q0 53 -36.5 85t-110.5 32q-87 0 -140 -43.5t-68 -112.5q-3 -18 -3 -35q0 -55 36 -88t110 -33q87 0 141 44t67 112zM98 164h100v-5q0 -44 33.5 -67.5t85.5 -23.5q96 0 160 54.5t103 199.5h-2q-31 -37 -91 -64.5t-132 -27.5q-93 0 -159 43t-66 136 q0 22 7 59q9 42 33 82.5t63 77.5t99.5 59.5t131.5 22.5q240 0 240 -224q0 -56 -15 -125q-16 -75 -41.5 -135.5t-53 -99t-63 -66.5t-65 -42.5t-66 -22.5t-58 -9.5t-48.5 -1.5q-33 0 -64.5 7.5t-63 24t-50.5 50t-19 78.5q0 13 1 20z" unicode="9"/>
<glyph glyph-name="colon" horiz-adv-x="334" unicode=":" d="M187 399l25 116h124l-25 -116h-124zM105 0l24 116h124l-24 -116h-124z"/>
<glyph glyph-name="less" horiz-adv-x="600" unicode="&lt;" d="M92 217l15 72l553 226l-18 -84l-440 -178l366 -178l-17 -84z"/>
<glyph glyph-name="equal" horiz-adv-x="600" unicode="=" d="M112 315l17 84h506l-17 -84h-506zM69 107l17 84h506l-17 -84h-506z"/>
<glyph glyph-name="greater" horiz-adv-x="600" unicode="&gt;" d="M502 253l-366 178l18 84l459 -226l-15 -72l-553 -226l17 84z"/>
<glyph glyph-name="question" d="M260 492h-100q17 69 54 119t84.5 75t92.5 35.5t92 10.5q95 0 153.5 -43.5t58.5 -124.5q0 -20 -5 -48q-8 -43 -32.5 -79t-54.5 -58.5t-65 -46t-64.5 -42t-52.5 -45t-29 -57.5h-94q11 55 41.5 95.5t67.5 64.5t73.5 46t65.5 52.5t38 70.5q4 24 4 33q0 50 -34.5 74t-92.5 24 q-74 0 -128.5 -41t-72.5 -115zM244 0l24 116h124l-24 -116h-124z" unicode="?"/>
<glyph glyph-name="at" horiz-adv-x="800" unicode="@" d="M583 398q2 8 2 22q0 32 -18 53.5t-46 21.5q-59 0 -114.5 -61.5t-68.5 -126.5q-3 -15 -3 -27q0 -34 18 -53.5t49 -19.5q58 0 113 63.5t68 127.5zM633 492l31 59h72l-133 -273q-21 -47 -21 -49q0 -1 -0.5 -3.5t-0.5 -3.5q0 -16 19 -16q52 0 110.5 63.5t73.5 141.5 q7 37 7 59q0 93 -66 147.5t-170 54.5q-136 0 -241.5 -92t-133.5 -226q-7 -32 -7 -68q0 -108 71 -176t189 -68q67 0 134.5 29.5t121.5 80.5h73q-66 -80 -157.5 -125t-187.5 -45q-140 0 -228.5 83.5t-88.5 213.5q0 39 9 79q21 103 90 189.5t167 135.5t202 49q126 0 208.5 -69 t82.5 -180q0 -29 -6 -59q-11 -54 -38.5 -102t-61.5 -81.5t-72.5 -58t-73 -36t-61.5 -11.5q-22 0 -36 12t-14 34q0 8 1 13h-2q-67 -59 -128 -59q-53 0 -86 35.5t-33 90.5q0 20 4 37q21 104 102 186.5t178 82.5q80 0 101 -75z"/>
<glyph glyph-name="A" horiz-adv-x="759" unicode="A" d="M574 300l-71 316l-200 -316h271zM642 0l-48 208h-350l-134 -208h-114l471 714h121l175 -714h-121z"/>
<glyph glyph-name="B" horiz-adv-x="778" unicode="B" d="M77 0l148 714h397q188 0 188 -133q0 -19 -5 -46q-25 -114 -136 -151v-2q103 -26 103 -127q0 -27 -5 -49q-17 -84 -88 -145t-180 -61h-422zM270 419h289q57 0 92 27.5t44 72.5q4 15 4 31q0 72 -104 72h-283zM202 92h287q148 0 174 121q3 13 3 26q0 88 -120 88h-296z"/>
<glyph glyph-name="C" horiz-adv-x="815" unicode="C" d="M865 457h-106v7q0 78 -51 127t-155 49q-129 0 -218.5 -74t-118.5 -218q-8 -38 -8 -72q0 -89 53.5 -145.5t167.5 -56.5q206 0 291 199h106q-40 -123 -154 -207t-263 -84q-61 0 -114.5 15.5t-98 46.5t-70.5 86t-26 127q0 47 12 102q34 162 154.5 267.5t297.5 105.5 q54 0 104.5 -12t97 -37.5t74.5 -73t28 -112.5q0 -19 -3 -40z"/>
<glyph glyph-name="D" horiz-adv-x="796" unicode="D" d="M77 0l148 714h362q127 0 189.5 -63t62.5 -176q0 -51 -12 -108q-16 -77 -47 -141.5t-77 -116t-112 -80.5t-146 -29h-368zM202 92h257q205 0 261 273q11 55 11 89q0 168 -182 168h-237z"/>
<glyph glyph-name="E" horiz-adv-x="704" unicode="E" d="M77 0l148 714h574l-19 -92h-468l-43 -207h454l-19 -92h-454l-48 -231h478l-19 -92h-584z"/>
<glyph glyph-name="F" horiz-adv-x="648" unicode="F" d="M77 0l148 714h553l-19 -92h-447l-44 -211h426l-19 -92h-426l-66 -319h-106z"/>
<glyph glyph-name="G" horiz-adv-x="870" unicode="G" d="M528 293l20 92h328l-80 -385h-76l3 102q-124 -120 -299 -120q-85 0 -148 24t-97 65t-50 88.5t-16 102.5q0 34 9 83q21 99 69 175.5t111.5 121.5t133 67.5t141.5 22.5q48 0 89 -6.5t81.5 -23t69.5 -43t48 -70t20 -100.5h-112q-9 76 -59.5 113.5t-150.5 37.5 q-134 0 -220.5 -81.5t-112.5 -204.5q-9 -44 -9 -79q0 -102 63.5 -151.5t165.5 -49.5q114 0 199 61t113 158h-234z"/>
<glyph glyph-name="H" horiz-adv-x="852" unicode="H" d="M669 0l69 336h-486l-69 -336h-106l148 714h106l-60 -286h486l60 286h106l-148 -714h-106z"/>
<glyph glyph-name="I" horiz-adv-x="278" unicode="I" d="M86 0l148 714h106l-148 -714h-106z"/>
<glyph glyph-name="J" horiz-adv-x="574" unicode="J" d="M73 243h100l-7 -34q-5 -27 -5 -43q0 -100 116 -100q65 0 106.5 36.5t55.5 105.5l105 506h106l-101 -484q-49 -248 -287 -248q-202 0 -202 163q0 37 13 98z"/>
<glyph glyph-name="K" horiz-adv-x="759" unicode="K" d="M609 0l-220 348l-154 -115l-48 -233h-106l148 714h106l-75 -359l474 359h150l-401 -296l272 -418h-146z"/>
<glyph glyph-name="L" horiz-adv-x="630" unicode="L" d="M81 0l148 714h106l-129 -622h434l-19 -92h-540z"/>
<glyph glyph-name="M" horiz-adv-x="1019" unicode="M" d="M534 122l409 592h147l-148 -714h-106l123 592h-2l-401 -592h-94l-157 580h-2l-120 -580h-106l148 714h149z"/>
<glyph glyph-name="N" horiz-adv-x="852" unicode="N" d="M648 0l-341 568h-2l-118 -568h-106l148 714h123l341 -568h2l118 568h106l-148 -714h-123z"/>
<glyph glyph-name="O" horiz-adv-x="870" unicode="O" d="M112 357q14 72 50 136.5t93 119t143 87t189 32.5q169 0 248.5 -80.5t79.5 -205.5q0 -44 -9 -89q-14 -72 -50 -136.5t-93 -119t-143 -87t-189 -32.5q-169 0 -248.5 80.5t-79.5 205.5q0 44 9 89zM800 357q8 36 8 74q0 102 -65.5 155.5t-174.5 53.5q-129 0 -225 -73 t-125 -210q-8 -36 -8 -74q0 -102 65.5 -155.5t174.5 -53.5q129 0 225 73t125 210z"/>
<glyph glyph-name="P" horiz-adv-x="722" unicode="P" d="M81 0l148 714h368q202 0 202 -150q0 -25 -6 -55q-23 -103 -95.5 -163t-182.5 -60h-269l-59 -286h-106zM265 378h255q138 0 167 129q4 22 4 31q0 39 -25.5 61.5t-75.5 22.5h-274z"/>
<glyph glyph-name="Q" horiz-adv-x="870" unicode="Q" d="M728 -77l-94 98q-92 -39 -203 -39q-169 0 -248.5 80.5t-79.5 205.5q0 44 9 89q14 72 50 136.5t93 119t143 87t189 32.5q169 0 248.5 -80.5t79.5 -205.5q0 -44 -9 -89q-16 -83 -63.5 -159t-120.5 -128l77 -78zM565 91l-59 61l69 67l83 -84q112 77 142 222q8 36 8 74 q0 102 -65.5 155.5t-174.5 53.5q-129 0 -225 -73t-125 -210q-8 -36 -8 -74q0 -102 65.5 -155.5t174.5 -53.5q63 0 115 17z"/>
<glyph glyph-name="R" horiz-adv-x="759" unicode="R" d="M81 0l148 714h442q83 0 121.5 -40t38.5 -102q0 -21 -5 -48q-30 -138 -156 -176l-1 -2q76 -10 76 -109q0 -21 -3 -43q-18 -113 -18 -146q0 -30 12 -48h-112q-8 11 -8 30q0 15 14 106q5 38 5 60q0 59 -26.5 83t-82.5 24h-277l-62 -303h-106zM269 395h296q71 0 106.5 33 t45.5 80q4 22 4 30q0 39 -26.5 61.5t-79.5 22.5h-299z"/>
<glyph glyph-name="S" horiz-adv-x="667" unicode="S" d="M64 235h106q-3 -18 -3 -33q0 -69 57 -98.5t143 -29.5q87 0 146.5 32t71.5 89q3 12 3 22q0 66 -114 84l-156 27q-177 29 -177 147q0 20 4 40q21 100 108.5 158.5t222.5 58.5q71 0 126.5 -15.5t94.5 -58.5t39 -109q0 -20 -3 -41h-106v11q0 121 -184 121q-66 0 -122 -29.5 t-69 -87.5q-2 -12 -2 -17q0 -59 100 -77l168 -30q2 0 16.5 -3.5t21 -5t22.5 -6t25 -8.5t23.5 -11t23.5 -14t19.5 -17.5t16.5 -22t10 -26t4 -31.5q0 -15 -5 -38q-13 -65 -50 -112.5t-88 -73t-105 -37t-112 -11.5q-57 0 -105 9.5t-89 31t-64.5 60.5t-23.5 93q0 28 6 59z"/>
<glyph glyph-name="T" horiz-adv-x="648" unicode="T" d="M271 0l129 622h-270l19 92h646l-19 -92h-270l-129 -622h-106z"/>
<glyph glyph-name="U" horiz-adv-x="796" unicode="U" d="M131 270l92 444h106l-95 -457q-5 -22 -5 -49q0 -134 184 -134q102 0 168.5 45t86.5 138l95 457h106l-92 -444q-60 -288 -383 -288q-272 0 -272 205q0 38 9 83z"/>
<glyph glyph-name="V" horiz-adv-x="722" unicode="V" d="M388 110l379 604h114l-461 -714h-113l-170 714h120z"/>
<glyph glyph-name="W" horiz-adv-x="1093" unicode="W" d="M742 0l-75 592h-2l-320 -592h-117l-87 714h115l62 -580h2l312 580h126l75 -580h2l303 580h110l-390 -714h-116z"/>
<glyph glyph-name="X" horiz-adv-x="704" unicode="X" d="M445 439l267 275h131l-347 -348l207 -366h-139l-156 289l-275 -289h-132l358 366l-196 348h135z"/>
<glyph glyph-name="Y" horiz-adv-x="722" unicode="Y" d="M442 389l305 325h129l-401 -415l-62 -299h-106l61 294l-226 420h135z"/>
<glyph glyph-name="Z" horiz-adv-x="685" unicode="Z" d="M14 0l19 95l620 527h-474l19 92h613l-19 -92l-622 -530h520l-19 -92h-657z"/>
<glyph glyph-name="bracketleft" horiz-adv-x="407" unicode="[" d="M77 -190l188 904h229l-16 -78h-135l-156 -748h135l-16 -78h-229z"/>
<glyph glyph-name="backslash" horiz-adv-x="406" unicode="\" d="M308 -18l-156 750h94l156 -750h-94z"/>
<glyph glyph-name="bracketright" horiz-adv-x="407" unicode="]" d="M172 -112l156 748h-135l16 78h229l-188 -904h-229l16 78h135z"/>
<glyph glyph-name="asciicircum" horiz-adv-x="600" unicode="^" d="M517 280l-91 330l-227 -330h-84l290 414h76l120 -414h-84z"/>
<glyph glyph-name="underscore" horiz-adv-x="500" unicode="_" d="M-25 -125l10 50h499l-10 -50h-499z"/>
<glyph glyph-name="grave" horiz-adv-x="222" unicode="`" d="M215 600l-101 140h125l56 -140h-80z"/>
<glyph glyph-name="a" horiz-adv-x="648" unicode="a" d="M228 360h-94q30 96 103.5 139t194.5 43q56 0 100 -8.5t79 -36.5t35 -73q0 -9 -4 -31l-58 -282q-2 -12 -2 -15q0 -30 37 -30q21 0 36 4l-14 -70q-37 -6 -80 -6q-38 0 -57 13t-19 48q0 2 0.5 6t0.5 6q-37 -39 -105 -62t-135 -23q-100 0 -142 35t-42 87q0 21 4 36 q14 74 73 111.5t185 51.5l117 12q47 4 71.5 17t32.5 46q2 7 2 20q0 66 -135 66q-159 0 -184 -104zM510 207l13 67q-24 -21 -104 -31l-116 -14q-64 -9 -96 -27.5t-41 -58.5q-2 -10 -2 -15q0 -31 29 -49.5t78 -18.5q86 0 155.5 41t83.5 106z"/>
<glyph glyph-name="b" horiz-adv-x="685" unicode="b" d="M61 0l149 720h100l-57 -275h2q38 45 96.5 68t121.5 23q104 0 169 -56t65 -154q0 -33 -7 -67q-27 -128 -123 -202.5t-219 -74.5q-60 0 -111.5 22.5t-70.5 62.5h-2l-13 -67h-100zM594 259q6 27 6 51q0 67 -42 104.5t-116 37.5q-88 0 -152 -52t-82 -141q-6 -25 -6 -50 q0 -63 40 -103t120 -40q96 0 155 55t77 138z"/>
<glyph glyph-name="c" horiz-adv-x="630" unicode="c" d="M529 192h106q-54 -113 -131 -161.5t-185 -48.5q-121 0 -178.5 58.5t-57.5 149.5q0 32 8 69q25 122 116 202.5t227 80.5q107 0 169.5 -46.5t62.5 -136.5v-10h-106v6q0 49 -34.5 76t-101.5 27q-93 0 -150 -53.5t-76 -142.5q-7 -35 -7 -57q0 -64 38 -101.5t113 -37.5 q68 0 112.5 30t74.5 96z"/>
<glyph glyph-name="d" horiz-adv-x="685" unicode="d" d="M524 0l13 67h-2q-36 -40 -95.5 -62.5t-120.5 -22.5q-104 0 -169.5 56t-65.5 155q0 34 7 66q27 128 123.5 202.5t219.5 74.5q61 0 110.5 -22t70.5 -63h2l56 269h100l-149 -720h-100zM197 259q-6 -25 -6 -50q0 -63 39.5 -103t118.5 -40q96 0 156 55.5t78 137.5q5 22 5 50 q0 67 -42 105t-117 38q-88 0 -150.5 -51.5t-81.5 -141.5z"/>
<glyph glyph-name="e" horiz-adv-x="667" unicode="e" d="M674 232h-482q-2 -18 -2 -26q0 -65 47.5 -102.5t112.5 -37.5q126 0 189 93h106q-54 -88 -138 -132.5t-169 -44.5q-125 0 -189 59.5t-64 155.5q0 34 7 65q26 121 120.5 200.5t241.5 79.5q99 0 165 -52.5t66 -161.5q0 -38 -9 -83zM211 310h373v10q0 65 -41.5 101.5 t-110.5 36.5q-72 0 -133.5 -40t-87.5 -108z"/>
<glyph glyph-name="f" horiz-adv-x="333" unicode="f" d="M200 524l17 78q14 70 61 100t127 30q10 0 85 -8l-16 -78q-38 2 -56 2q-51 0 -73.5 -10t-28.5 -41l-16 -73h148l-16 -78h-148l-92 -446h-100l92 446h-107l16 78h107z"/>
<glyph glyph-name="g" horiz-adv-x="685" unicode="g" d="M622 447l16 77h100l-99 -480q-30 -141 -114 -202.5t-246 -61.5q-48 0 -83.5 5t-71.5 19.5t-55.5 46t-19.5 79.5v13h100q3 -48 41 -66.5t115 -18.5q101 0 156.5 43.5t71.5 114.5l16 76h-2q-87 -97 -224 -97q-101 0 -169 50.5t-68 151.5q0 34 7 68q14 70 50 124t84.5 85 t101 46.5t106.5 15.5q67 0 116 -22.5t69 -66.5h2zM584 264q5 20 5 46q0 64 -42 103t-117 39q-90 0 -151.5 -52.5t-80.5 -135.5q-4 -20 -4 -44q0 -65 41 -103t118 -38q89 0 152 51.5t79 133.5z"/>
<glyph glyph-name="h" horiz-adv-x="649" unicode="h" d="M61 0l149 720h100l-57 -275h2q82 97 225 97q86 0 136.5 -34.5t50.5 -104.5q0 -18 -5 -46l-74 -357h-100l70 337q4 22 4 31q0 90 -134 90q-73 0 -131.5 -41t-73.5 -115l-62 -302h-100z"/>
<glyph glyph-name="i" horiz-adv-x="222" unicode="i" d="M61 0l108 524h100l-108 -524h-100zM187 610l23 110h100l-23 -110h-100z"/>
<glyph glyph-name="j" horiz-adv-x="222" unicode="j" d="M-93 -200l17 84q14 -2 19 -2h18q40 0 60.5 15t27.5 48l120 579h100l-115 -556q-18 -92 -62.5 -131t-137.5 -39q-13 0 -47 2zM187 610l23 110h100l-23 -110h-100z"/>
<glyph glyph-name="k" horiz-adv-x="593" unicode="k" d="M231 300l312 224h152l-287 -197l198 -327h-136l-155 262l-107 -73l-39 -189h-100l149 720h100z"/>
<glyph glyph-name="l" horiz-adv-x="222" unicode="l" d="M61 0l149 720h100l-149 -720h-100z"/>
<glyph glyph-name="m" horiz-adv-x="1018" unicode="m" d="M857 0l69 333q4 17 4 36q0 89 -104 89q-74 0 -130.5 -35.5t-71.5 -105.5l-65 -317h-100l69 333q4 17 4 36q0 89 -104 89q-73 0 -131.5 -41t-73.5 -115l-62 -302h-100l108 524h100l-16 -79h2q82 97 225 97q119 0 158 -97q97 97 232 97q22 0 47 -5.5t53.5 -19.5t47 -44 t18.5 -72q0 -17 -5 -44l-74 -357h-100z"/>
<glyph glyph-name="n" horiz-adv-x="649" unicode="n" d="M61 0l108 524h100l-16 -79h2q82 97 225 97q86 0 136.5 -34.5t50.5 -104.5q0 -18 -5 -46l-74 -357h-100l70 337q4 22 4 31q0 90 -134 90q-73 0 -131.5 -41t-73.5 -115l-62 -302h-100z"/>
<glyph glyph-name="o" horiz-adv-x="684" unicode="o" d="M92 262q26 121 120.5 200.5t241.5 79.5q124 0 188.5 -59.5t64.5 -155.5q0 -34 -7 -65q-26 -120 -121 -200t-241 -80q-125 0 -189 59.5t-64 155.5q0 34 7 65zM594 262q5 27 5 49q0 65 -38.5 106t-123.5 41q-100 0 -161.5 -58t-77.5 -138q-6 -25 -6 -50q0 -64 39.5 -105 t123.5 -41q101 0 161 57.5t78 138.5z"/>
<glyph glyph-name="p" horiz-adv-x="685" unicode="p" d="M19 -202l150 726h100l-15 -73h2q36 40 96.5 62.5t120.5 22.5q104 0 169 -56t65 -154q0 -33 -7 -67q-27 -128 -123 -202.5t-219 -74.5q-62 0 -111.5 22t-70.5 63h-2l-55 -269h-100zM594 259q6 25 6 50q0 64 -39 103.5t-119 39.5q-96 0 -156 -55.5t-78 -137.5 q-5 -23 -5 -50q0 -67 42 -105t117 -38q88 0 150.5 51.5t81.5 141.5z"/>
<glyph glyph-name="q" horiz-adv-x="685" unicode="q" d="M617 451l15 73h100l-150 -726h-100l57 275h-2q-38 -45 -97 -68t-121 -23q-104 0 -169.5 56t-65.5 155q0 34 7 66q27 128 123.5 202.5t219.5 74.5q60 0 111 -22.5t70 -62.5h2zM197 259q-6 -27 -6 -51q0 -67 42 -104.5t116 -37.5q88 0 152 52t82 141q6 25 6 50 q0 63 -39.5 103t-120.5 40q-96 0 -155 -55t-77 -138z"/>
<glyph glyph-name="r" horiz-adv-x="407" unicode="r" d="M61 0l108 524h100l-20 -96h2q88 114 204 114q33 0 56 -6l-23 -108q-33 10 -68 10q-76 0 -131 -44.5t-73 -127.5l-55 -266h-100z"/>
<glyph glyph-name="s" horiz-adv-x="593" unicode="s" d="M65 165h100q-2 -12 -2 -18q0 -37 34 -62t111 -25q159 0 177 82q2 12 2 16q0 42 -86 54l-161 22q-52 8 -84 36.5t-32 75.5q0 12 3 27q17 80 90 124.5t184 44.5q221 0 221 -153q0 -15 -1 -23h-100q1 4 1 13q0 38 -34.5 61.5t-103.5 23.5q-56 0 -101 -19t-54 -61 q-2 -12 -2 -16q0 -20 17 -31.5t59 -17.5l138 -19q157 -24 157 -112q0 -14 -3 -27q-18 -89 -97 -134t-203 -45q-232 0 -232 152q0 20 2 31z"/>
<glyph glyph-name="t" horiz-adv-x="370" unicode="t" d="M213 524l34 161h100l-34 -161h150l-16 -78h-150l-67 -323q-2 -10 -2 -15q0 -42 71 -42q29 0 71 7l-18 -84q-35 -7 -113 -7q-116 0 -116 88q0 19 4 36l70 340h-108l16 78h108z"/>
<glyph glyph-name="u" horiz-adv-x="649" unicode="u" d="M696 524l-108 -524h-100l16 79h-2q-82 -97 -225 -97q-86 0 -136.5 34.5t-50.5 104.5q0 18 5 46l74 357h100l-70 -337q-4 -22 -4 -31q0 -90 134 -90q73 0 131.5 41t73.5 115l62 302h100z"/>
<glyph glyph-name="v" horiz-adv-x="574" unicode="v" d="M312 110l263 414h112l-344 -524h-110l-130 524h115z"/>
<glyph glyph-name="w" horiz-adv-x="907" unicode="w" d="M667 124l233 400h106l-315 -524h-109l-48 400h-2l-214 -400h-106l-95 524h111l62 -400h2l213 400h110l50 -400h2z"/>
<glyph glyph-name="x" horiz-adv-x="593" unicode="x" d="M368 344l189 180h133l-272 -253l180 -271h-140l-124 199l-207 -199h-132l289 271l-164 253h136z"/>
<glyph glyph-name="y" horiz-adv-x="574" unicode="y" d="M312 110l263 414h112l-401 -614q-52 -81 -94 -105.5t-115 -24.5q-42 0 -75 4l17 84q5 0 24 -2t33 -2q45 0 68.5 15t57.5 65l33 48l-132 532h115z"/>
<glyph glyph-name="z" horiz-adv-x="593" unicode="z" d="M27 0l17 82l460 358h-367l17 84h505l-16 -78l-466 -362h406l-17 -84h-539z"/>
<glyph glyph-name="braceleft" horiz-adv-x="333" unicode="{" d="M94 229l14 66q34 2 65 34.5t42 83.5l36 170q11 60 52.5 95.5t82.5 35.5h72l-13 -60h-48q-49 0 -65 -86l-36 -171q-14 -61 -50.5 -95t-66.5 -39v-2q22 -5 43.5 -29.5t21.5 -68.5q0 -19 -4 -36l-36 -171q-4 -19 -4 -40q0 -46 34 -46h48l-12 -60h-72q-36 0 -60 26t-24 72 q0 15 3 33l36 170q3 18 3 33q0 37 -17.5 60t-44.5 25z"/>
<glyph glyph-name="bar" horiz-adv-x="222" unicode="|" d="M65 -18l156 750h84l-156 -750h-84z"/>
<glyph glyph-name="braceright" horiz-adv-x="333" unicode="}" d="M-16 -190l12 60h47q50 0 66 86l36 171q12 61 49.5 94.5t67.5 39.5v2q-21 4 -43 28.5t-22 68.5q0 18 4 37l36 171q4 26 4 39q0 47 -35 47h-48l13 60h72q36 0 60 -26t24 -72q0 -15 -3 -33l-36 -170q-3 -18 -3 -33q0 -37 17.5 -60t44.5 -25l-14 -66q-34 -2 -65 -34.5 t-42 -83.5l-36 -170q-11 -60 -52.5 -95.5t-82.5 -35.5h-71z"/>
<glyph glyph-name="asciitilde" horiz-adv-x="600" unicode="~" d="M141 176l-23 63q64 86 143 86q43 0 109 -36t89 -36q45 0 104 77l23 -63q-64 -86 -143 -86q-45 0 -108 36q-66 36 -90 36q-44 0 -104 -77z"/>
<glyph glyph-name="uni00A0" horiz-adv-x="334" unicode=" "/>
<glyph glyph-name="exclamdown" horiz-adv-x="334" unicode="¡" d="M189 408l24 116h124l-24 -116h-124zM71 -190l39 187l97 339h58l-43 -339l-39 -187h-112z"/>
<glyph glyph-name="cent" d="M325 68l81 389q-78 -9 -126.5 -61.5t-64.5 -133.5q-6 -32 -6 -59q0 -121 116 -135zM288 -109l19 93q-107 6 -156.5 63.5t-49.5 143.5q0 36 7 68q25 116 107 194.5t208 87.5l19 92h54l-19 -92q96 -6 151 -52t55 -130v-10h-106v7q0 93 -117 101l-81 -389q60 4 100 34t67 90 h106q-50 -106 -122 -155t-169 -53l-19 -93h-54z" unicode="¢"/>
<glyph glyph-name="sterling" d="M106 311l13 60h63q-13 27 -13 68q0 30 5 51q17 88 103.5 154t222.5 66q112 0 172 -45.5t60 -128.5q0 -22 -7 -57h-106q2 10 2 29q0 54 -35.5 86t-109.5 32q-77 0 -131 -41.5t-68 -109.5q-4 -18 -4 -37q0 -37 15 -67h211l-13 -60h-188q6 -19 6 -43q0 -17 -3 -32 q-9 -39 -40 -80t-75 -64l1 -2q51 18 99 18q35 0 103.5 -16t83.5 -16q67 0 151 51l10 -88q-88 -55 -176 -55q-31 0 -102 20t-123 20q-95 0 -149 -40l-29 83q124 63 144 161q2 8 2 26q0 32 -9 57h-86z" unicode="£"/>
<glyph glyph-name="currency" d="M570 347q4 24 4 35q0 58 -37 96.5t-96 38.5q-69 0 -127 -50t-72 -120q-4 -17 -4 -37q0 -57 37 -95t95 -38q69 0 126.5 49.5t73.5 120.5zM111 142l66 55q-25 47 -25 99q0 26 6 51q16 84 82 150l-44 55l58 48l44 -55q76 50 159 50t139 -50l66 55l38 -48l-66 -56 q25 -45 25 -100q0 -21 -5 -49q-18 -83 -82 -149l43 -56l-58 -48l-44 56q-73 -51 -159 -51q-82 0 -138 51l-67 -56z" unicode="¤"/>
<glyph glyph-name="yen" d="M412 369l262 325h129l-296 -343h142l-12 -60h-181l-12 -14l-15 -73h190l-13 -60h-190l-29 -144h-106l29 144h-190l13 60h190l15 73l-6 14h-181l12 60h142l-150 343h135z" unicode="¥"/>
<glyph glyph-name="brokenbar" horiz-adv-x="222" unicode="¦" d="M65 -18l58 280h84l-58 -280h-84zM162 452l59 280h84l-59 -280h-84z"/>
<glyph glyph-name="section" d="M88 5h100q-1 -7 -1 -19q0 -92 129 -92q132 0 150 83q2 12 2 17q0 23 -17 39.5t-57 33.5l-161 71q-72 33 -100.5 64.5t-28.5 73.5q0 18 5 45q9 42 44.5 80t89.5 55q-30 26 -30 74q0 16 3 31q18 80 92 125.5t174 45.5q86 0 141 -37.5t55 -106.5q0 -18 -5 -41h-100 q2 14 2 20q0 81 -116 81q-123 0 -141 -80q-2 -10 -2 -14q0 -37 46 -57l215 -95q101 -45 101 -127q0 -13 -3 -30q-20 -102 -135 -148q32 -26 32 -74q0 -20 -4 -36q-17 -78 -88.5 -127.5t-178.5 -49.5q-62 0 -106.5 13.5t-67.5 37.5t-33 49t-10 55q0 23 4 40zM309 216l181 -80 q35 10 58 33t29 53q2 12 2 18q0 48 -78 82l-212 94q-71 -25 -85 -90q-2 -12 -2 -16q0 -25 23 -46t84 -48z" unicode="§"/>
<glyph glyph-name="dieresis" horiz-adv-x="222" unicode="¨" d="M67 618l22 104h100l-22 -104h-100zM307 618l22 104h100l-22 -104h-100z"/>
<glyph glyph-name="copyright" horiz-adv-x="800" unicode="©" d="M99 357q33 163 166.5 269t286.5 106q132 0 218.5 -81.5t86.5 -213.5q0 -43 -8 -80q-23 -109 -93.5 -195.5t-165.5 -133t-194 -46.5q-132 0 -219 80.5t-87 211.5q0 40 9 83zM765 357q6 33 6 63q0 103 -65.5 168.5t-170.5 65.5q-123 0 -225 -85t-127 -212q-7 -32 -7 -67 q0 -102 65.5 -166t170.5 -64q122 0 223.5 85t129.5 212zM571 292h84q-27 -74 -86.5 -116.5t-127.5 -42.5q-79 0 -124.5 47t-45.5 124q0 26 6 55q21 99 90.5 162.5t164.5 63.5q67 0 108.5 -36.5t41.5 -102.5q0 -2 -0.5 -7.5t-0.5 -8.5h-81q-1 35 -24 56t-62 21q-58 0 -98 -41 t-55 -107q-4 -19 -4 -39q0 -49 26 -79t73 -30q39 0 70 21.5t45 59.5z"/>
<glyph glyph-name="ordfeminine" horiz-adv-x="421" unicode="ª" d="M223 599h-66q18 60 65.5 85.5t128.5 25.5q37 0 67 -5.5t53.5 -22t23.5 -43.5q0 -4 -2 -16l-34 -162q0 -1 -0.5 -3t-0.5 -3q0 -18 25 -18q11 0 19 2l-10 -45q-11 -1 -30 -3t-22 -2q-50 0 -50 36v6q-23 -25 -67 -39t-89 -14q-120 0 -120 78q0 6 2 20q9 43 46.5 66.5 t116.5 31.5l77 7q57 4 63 31q1 3 1 9q0 35 -82 35q-101 0 -115 -57zM400 520l5 28h-2q-8 -10 -70 -20l-66 -9q-71 -11 -79 -43q0 -1 -0.5 -3t-0.5 -3q0 -17 18 -27.5t48 -10.5q52 0 94.5 24.5t52.5 63.5z"/>
<glyph glyph-name="guillemotleft" horiz-adv-x="556" unicode="«" d="M345 226l22 104l208 133l-21 -101l-137 -84l102 -84l-21 -101zM123 226l22 104l208 133l-21 -101l-137 -84l102 -84l-21 -101z"/>
<glyph glyph-name="logicalnot" horiz-adv-x="600" unicode="¬" d="M491 107l43 208h-422l17 84h506l-60 -292h-84z"/>
<glyph glyph-name="uni00AD" horiz-adv-x="481" unicode="­" d="M111 226l22 104h351l-22 -104h-351z"/>
<glyph glyph-name="registered" horiz-adv-x="800" unicode="®" d="M99 357q33 163 166.5 269t286.5 106q132 0 218.5 -81.5t86.5 -213.5q0 -43 -8 -80q-23 -109 -93.5 -195.5t-165.5 -133t-194 -46.5q-132 0 -219 80.5t-87 211.5q0 40 9 83zM765 357q6 33 6 63q0 103 -65.5 168.5t-170.5 65.5q-123 0 -225 -85t-127 -212q-7 -32 -7 -67 q0 -102 65.5 -166t170.5 -64q122 0 223.5 85t129.5 212zM530 143l-73 185h-67l-39 -185h-72l89 428h167q71 0 105.5 -21t34.5 -67q0 -18 -4 -35q-23 -105 -141 -117l84 -188h-84zM402 388h77q50 0 78 12t37 53q2 10 2 13q0 45 -85 45h-83z"/>
<glyph glyph-name="macron" horiz-adv-x="222" unicode="¯" d="M45 631l16 78h392l-16 -78h-392z"/>
<glyph glyph-name="degree" horiz-adv-x="400" unicode="°" d="M174 567q12 60 63 101.5t110 41.5q52 0 84 -32t32 -81q0 -15 -3 -30q-12 -60 -62.5 -101.5t-109.5 -41.5q-52 0 -84.5 32t-32.5 82q0 14 3 29zM406 567q2 10 2 15q0 29 -22 51.5t-50 22.5q-33 0 -66.5 -28t-41.5 -61q-1 -4 -1 -13q0 -30 21 -53t51 -23q33 0 67 28t40 61z "/>
<glyph glyph-name="plusminus" horiz-adv-x="600" unicode="±" d="M331 354l32 152h84l-32 -152h211l-17 -84h-211l-32 -152h-84l32 152h-211l17 84h211zM47 0l17 84h506l-17 -84h-506z"/>
<glyph glyph-name="twosuperior" horiz-adv-x="434" unicode="²" d="M232 560h-78q13 69 66 109.5t143 40.5q73 0 109.5 -27.5t36.5 -75.5q0 -15 -3 -30q-9 -47 -46.5 -82.5t-79.5 -53t-90.5 -40t-70.5 -43.5h242l-15 -72h-363q13 54 51 93t83 60.5t89.5 39.5t77 42t39.5 57q1 4 1 12q0 27 -21 40.5t-55 13.5q-48 0 -77.5 -24t-38.5 -60z "/>
<glyph glyph-name="threesuperior" horiz-adv-x="434" unicode="³" d="M270 473l13 62q4 -1 15 -1h28q73 0 85 57q2 10 2 13q0 40 -75 40q-48 0 -72 -17t-34 -55h-78q18 69 71 103.5t129 34.5q73 0 108.5 -26.5t35.5 -68.5q0 -6 -2 -20q-14 -70 -85 -85l-1 -2q32 -5 51.5 -26.5t19.5 -50.5q0 -6 -2 -16q-5 -23 -16 -43.5t-32.5 -44.5 t-62.5 -38.5t-96 -14.5q-166 0 -166 107q0 18 4 35h78q-1 -6 -1 -17q0 -35 22 -47t71 -12q99 0 112 64q2 10 2 15q0 26 -23 40.5t-63 14.5q-14 0 -25 -0.5t-13 -0.5z"/>
<glyph glyph-name="acute" horiz-adv-x="222" unicode="´" d="M175 600l116 140h125l-161 -140h-80z"/>
<glyph glyph-name="mu" horiz-adv-x="649" unicode="µ" d="M19 -202l150 726h100l-70 -337q-4 -22 -4 -31q0 -90 134 -90q73 0 131.5 41t73.5 115l62 302h100l-108 -524h-100l16 79h-2q-82 -97 -220 -97q-77 0 -117 41l-46 -225h-100z"/>
<glyph glyph-name="paragraph" horiz-adv-x="600" unicode="¶" d="M402 -172l170 820h-111l-170 -820h-84l107 516q-84 0 -132 39.5t-48 104.5q0 21 4 38q19 96 91 142t181 46h260l-184 -886h-84z"/>
<glyph glyph-name="periodcentered" horiz-adv-x="334" unicode="·" d="M157 308q6 31 32 52.5t57 21.5q27 0 43.5 -16.5t16.5 -42.5q0 -10 -1 -15q-7 -31 -33 -52.5t-57 -21.5q-27 0 -43.5 16.5t-16.5 41.5q0 6 2 16z"/>
<glyph glyph-name="cedilla" horiz-adv-x="222" unicode="¸" d="M54 -101l-14 19l68 82h51l-46 -56q15 4 44 4q31 0 49.5 -13t18.5 -37q0 -5 -2 -15q-10 -44 -49.5 -64.5t-92.5 -20.5t-98 14l22 47q30 -13 72 -13q22 0 40 8.5t21 22.5q0 1 0.5 2.5t0.5 2.5q0 24 -37 24q-20 0 -48 -7z"/>
<glyph glyph-name="onesuperior" horiz-adv-x="289" unicode="¹" d="M172 286l60 288h-121l12 60q29 0 49.5 2.5t42.5 9.5t37.5 23t24.5 41h67l-88 -424h-84z"/>
<glyph glyph-name="ordmasculine" horiz-adv-x="445" unicode="º" d="M138 544q14 72 75 119t156 47q83 0 125.5 -36.5t42.5 -94.5q0 -11 -4 -35q-15 -71 -76.5 -118.5t-156.5 -47.5q-82 0 -124 36t-42 94q0 20 4 36zM454 543q2 14 2 21q0 36 -24 61t-75 25q-59 0 -96 -33t-46 -74q-2 -12 -2 -18q0 -36 24 -61.5t76 -25.5q59 0 96.5 33 t44.5 72z"/>
<glyph glyph-name="guillemotright" horiz-adv-x="556" unicode="»" d="M253 278l-101 84l21 101l152 -133l-22 -104l-207 -133l21 101zM475 278l-101 84l21 101l152 -133l-22 -104l-207 -133l21 101z"/>
<glyph glyph-name="onequarter" horiz-adv-x="1000" unicode="¼" d="M803 0l19 93h-232l13 63l300 268h66l-55 -265h72l-14 -66h-72l-19 -93h-78zM836 159l33 163h-2l-176 -163h145zM204 286l60 288h-121l12 60q29 0 49.5 2.5t42.5 9.5t37.5 23t24.5 41h67l-88 -424h-84zM193 -16l548 726h84l-548 -726h-84z"/>
<glyph glyph-name="onehalf" horiz-adv-x="1000" unicode="½" d="M204 286l60 288h-121l12 60q29 0 49.5 2.5t42.5 9.5t37.5 23t24.5 41h67l-88 -424h-84zM195 -16l548 726h84l-548 -726h-84zM738 274h-78q15 69 68 109.5t142 40.5q73 0 109.5 -27.5t36.5 -75.5q0 -15 -3 -30q-10 -47 -47.5 -82.5t-79.5 -53t-90.5 -40t-70.5 -43.5h242 l-14 -72h-363q13 54 51 93t83 60.5t89 39.5t76.5 42t39.5 57q2 10 2 14q0 25 -22 38.5t-54 13.5q-47 0 -77 -23.5t-40 -60.5z"/>
<glyph glyph-name="threequarters" horiz-adv-x="1000" unicode="¾" d="M803 0l19 93h-232l13 63l300 268h66l-55 -265h72l-14 -66h-72l-19 -93h-78zM836 159l33 163h-2l-176 -163h145zM270 473l13 62q4 -1 15 -1h28q73 0 85 57q2 10 2 13q0 40 -75 40q-48 0 -72 -17t-34 -55h-78q18 69 71 103.5t129 34.5q73 0 108.5 -26.5t35.5 -68.5 q0 -6 -2 -20q-14 -70 -85 -85l-1 -2q32 -5 51.5 -26.5t19.5 -50.5q0 -6 -2 -16q-5 -23 -16 -43.5t-32.5 -44.5t-62.5 -38.5t-96 -14.5q-166 0 -166 107q0 18 4 35h78q-1 -6 -1 -17q0 -35 22 -47t71 -12q99 0 112 64q2 10 2 15q0 26 -23 40.5t-63 14.5q-14 0 -25 -0.5 t-13 -0.5zM261 -16l548 726h84l-548 -726h-84z"/>
<glyph glyph-name="questiondown" d="M516 32h100q-17 -69 -54 -119t-84.5 -75t-92.5 -35.5t-92 -10.5q-95 0 -153.5 43.5t-58.5 124.5q0 20 5 48q11 51 43 91.5t71.5 66.5t78 49.5t68 54t37.5 66.5h94q-11 -55 -41.5 -95.5t-67.5 -64.5t-73.5 -46t-65.5 -52.5t-38 -70.5q-4 -24 -4 -33q0 -50 34.5 -74 t92.5 -24q74 0 128.5 41t72.5 115zM384 408l24 116h124l-24 -116h-124z" unicode="¿"/>
<glyph glyph-name="Agrave" horiz-adv-x="759" unicode="À" d="M497 770l-101 140h125l56 -140h-80zM574 300l-71 316l-200 -316h271zM642 0l-48 208h-350l-134 -208h-114l471 714h121l175 -714h-121z"/>
<glyph glyph-name="Aacute" horiz-adv-x="759" unicode="Á" d="M474 770l116 140h125l-161 -140h-80zM574 300l-71 316l-200 -316h271zM642 0l-48 208h-350l-134 -208h-114l471 714h121l175 -714h-121z"/>
<glyph glyph-name="Acircumflex" horiz-adv-x="759" unicode="Â" d="M615 770l-67 88l-105 -88h-97l160 140h106l100 -140h-97zM574 300l-71 316l-200 -316h271zM642 0l-48 208h-350l-134 -208h-114l471 714h121l175 -714h-121z"/>
<glyph glyph-name="Atilde" horiz-adv-x="759" unicode="Ã" d="M395 779h-59q16 54 53.5 88.5t86.5 34.5q41 0 93 -24q44 -21 74 -21q37 0 56 45h59q-16 -54 -53.5 -88.5t-86.5 -34.5q-43 0 -93 24q-44 21 -75 21q-36 0 -55 -45zM574 300l-71 316l-200 -316h271zM642 0l-48 208h-350l-134 -208h-114l471 714h121l175 -714h-121z"/>
<glyph glyph-name="Adieresis" horiz-adv-x="759" unicode="Ä" d="M369 788l22 104h100l-22 -104h-100zM609 788l22 104h100l-22 -104h-100zM574 300l-71 316l-200 -316h271zM642 0l-48 208h-350l-134 -208h-114l471 714h121l175 -714h-121z"/>
<glyph glyph-name="Aring" horiz-adv-x="759" unicode="Å" d="M435 870q11 49 51.5 83t89.5 34q42 0 69 -26t27 -66q0 -13 -3 -25q-11 -49 -51.5 -83t-89.5 -34q-42 0 -69 26t-27 66q0 13 3 25zM615 870q1 4 1 11q0 21 -15 36.5t-36 15.5q-25 0 -48 -19t-28 -44q-1 -5 -1 -13q0 -23 14 -36.5t37 -13.5q25 0 48 19t28 44zM574 300 l-71 316l-200 -316h271zM642 0l-48 208h-350l-134 -208h-114l471 714h121l175 -714h-121z"/>
<glyph glyph-name="AE" horiz-adv-x="1111" unicode="Æ" d="M588 300l67 322h-50l-269 -322h252zM526 0l43 208h-309l-173 -208h-120l598 714h646l-19 -92h-437l-43 -207h423l-19 -92h-423l-48 -231h442l-19 -92h-542z"/>
<glyph glyph-name="Ccedilla" horiz-adv-x="815" unicode="Ç" d="M317 -101l-14 19l55 67q-39 4 -80 17q-80 26 -129 90.5t-49 165.5q0 46 12 101q34 162 154.5 267.5t297.5 105.5q54 0 104.5 -12t97 -37.5t74.5 -73t28 -112.5q0 -19 -3 -40h-106v7q0 78 -51 127t-155 49q-129 0 -218.5 -74t-118.5 -218q-8 -38 -8 -72q0 -89 53.5 -145.5 t167.5 -56.5q206 0 291 199h106q-40 -123 -154 -207t-263 -84h-2l-31 -38q15 4 44 4q31 0 49.5 -13t18.5 -37q0 -5 -2 -15q-10 -44 -49.5 -64.5t-92.5 -20.5t-98 14l22 47q30 -13 72 -13q22 0 40 8.5t21 22.5q0 1 0.5 2.5t0.5 2.5q0 24 -37 24q-20 0 -48 -7z"/>
<glyph glyph-name="Egrave" horiz-adv-x="704" unicode="È" d="M495 770l-101 140h125l56 -140h-80zM77 0l148 714h574l-19 -92h-468l-43 -207h454l-19 -92h-454l-48 -231h478l-19 -92h-584z"/>
<glyph glyph-name="Eacute" horiz-adv-x="704" unicode="É" d="M476 770l116 140h125l-161 -140h-80zM77 0l148 714h574l-19 -92h-468l-43 -207h454l-19 -92h-454l-48 -231h478l-19 -92h-584z"/>
<glyph glyph-name="Ecircumflex" horiz-adv-x="704" unicode="Ê" d="M604 770l-67 88l-105 -88h-97l160 140h106l100 -140h-97zM77 0l148 714h574l-19 -92h-468l-43 -207h454l-19 -92h-454l-48 -231h478l-19 -92h-584z"/>
<glyph glyph-name="Edieresis" horiz-adv-x="704" unicode="Ë" d="M357 788l22 104h100l-22 -104h-100zM597 788l22 104h100l-22 -104h-100zM77 0l148 714h574l-19 -92h-468l-43 -207h454l-19 -92h-454l-48 -231h478l-19 -92h-584z"/>
<glyph glyph-name="Igrave" horiz-adv-x="278" unicode="Ì" d="M260 770l-101 140h125l56 -140h-80zM86 0l148 714h106l-148 -714h-106z"/>
<glyph glyph-name="Iacute" horiz-adv-x="278" unicode="Í" d="M236 770l116 140h125l-161 -140h-80zM86 0l148 714h106l-148 -714h-106z"/>
<glyph glyph-name="Icircumflex" horiz-adv-x="278" unicode="Î" d="M379 770l-67 88l-105 -88h-97l160 140h106l100 -140h-97zM86 0l148 714h106l-148 -714h-106z"/>
<glyph glyph-name="Idieresis" horiz-adv-x="278" unicode="Ï" d="M130 788l22 104h100l-22 -104h-100zM370 788l22 104h100l-22 -104h-100zM86 0l148 714h106l-148 -714h-106z"/>
<glyph glyph-name="Eth" horiz-adv-x="796" unicode="Ð" d="M164 419l61 295h362q127 0 189.5 -63t62.5 -176q0 -51 -12 -108q-16 -77 -47 -141.5t-77 -116t-112 -80.5t-146 -29h-368l72 347h-70l15 72h70zM270 419h230l-15 -72h-230l-53 -255h257q205 0 261 273q11 55 11 89q0 168 -182 168h-237z"/>
<glyph glyph-name="Ntilde" horiz-adv-x="852" unicode="Ñ" d="M450 779h-59q16 54 53.5 88.5t86.5 34.5q41 0 93 -24q44 -21 74 -21q37 0 56 45h59q-16 -54 -53.5 -88.5t-86.5 -34.5q-43 0 -93 24q-44 21 -75 21q-36 0 -55 -45zM648 0l-341 568h-2l-118 -568h-106l148 714h123l341 -568h2l118 568h106l-148 -714h-123z"/>
<glyph glyph-name="Ograve" horiz-adv-x="870" unicode="Ò" d="M563 770l-101 140h125l56 -140h-80zM112 357q14 72 50 136.5t93 119t143 87t189 32.5q169 0 248.5 -80.5t79.5 -205.5q0 -44 -9 -89q-14 -72 -50 -136.5t-93 -119t-143 -87t-189 -32.5q-169 0 -248.5 80.5t-79.5 205.5q0 44 9 89zM800 357q8 36 8 74q0 102 -65.5 155.5 t-174.5 53.5q-129 0 -225 -73t-125 -210q-8 -36 -8 -74q0 -102 65.5 -155.5t174.5 -53.5q129 0 225 73t125 210z"/>
<glyph glyph-name="Oacute" horiz-adv-x="870" unicode="Ó" d="M540 770l116 140h125l-161 -140h-80zM112 357q14 72 50 136.5t93 119t143 87t189 32.5q169 0 248.5 -80.5t79.5 -205.5q0 -44 -9 -89q-14 -72 -50 -136.5t-93 -119t-143 -87t-189 -32.5q-169 0 -248.5 80.5t-79.5 205.5q0 44 9 89zM800 357q8 36 8 74q0 102 -65.5 155.5 t-174.5 53.5q-129 0 -225 -73t-125 -210q-8 -36 -8 -74q0 -102 65.5 -155.5t174.5 -53.5q129 0 225 73t125 210z"/>
<glyph glyph-name="Ocircumflex" horiz-adv-x="870" unicode="Ô" d="M695 770l-67 88l-105 -88h-97l160 140h106l100 -140h-97zM112 357q14 72 50 136.5t93 119t143 87t189 32.5q169 0 248.5 -80.5t79.5 -205.5q0 -44 -9 -89q-14 -72 -50 -136.5t-93 -119t-143 -87t-189 -32.5q-169 0 -248.5 80.5t-79.5 205.5q0 44 9 89zM800 357q8 36 8 74 q0 102 -65.5 155.5t-174.5 53.5q-129 0 -225 -73t-125 -210q-8 -36 -8 -74q0 -102 65.5 -155.5t174.5 -53.5q129 0 225 73t125 210z"/>
<glyph glyph-name="Otilde" horiz-adv-x="870" unicode="Õ" d="M450 779h-59q16 54 53.5 88.5t86.5 34.5q41 0 93 -24q44 -21 74 -21q37 0 56 45h59q-16 -54 -53.5 -88.5t-86.5 -34.5q-43 0 -93 24q-44 21 -75 21q-36 0 -55 -45zM112 357q14 72 50 136.5t93 119t143 87t189 32.5q169 0 248.5 -80.5t79.5 -205.5q0 -44 -9 -89 q-14 -72 -50 -136.5t-93 -119t-143 -87t-189 -32.5q-169 0 -248.5 80.5t-79.5 205.5q0 44 9 89zM800 357q8 36 8 74q0 102 -65.5 155.5t-174.5 53.5q-129 0 -225 -73t-125 -210q-8 -36 -8 -74q0 -102 65.5 -155.5t174.5 -53.5q129 0 225 73t125 210z"/>
<glyph glyph-name="Odieresis" horiz-adv-x="870" unicode="Ö" d="M424 788l22 104h100l-22 -104h-100zM664 788l22 104h100l-22 -104h-100zM112 357q14 72 50 136.5t93 119t143 87t189 32.5q169 0 248.5 -80.5t79.5 -205.5q0 -44 -9 -89q-14 -72 -50 -136.5t-93 -119t-143 -87t-189 -32.5q-169 0 -248.5 80.5t-79.5 205.5q0 44 9 89z M800 357q8 36 8 74q0 102 -65.5 155.5t-174.5 53.5q-129 0 -225 -73t-125 -210q-8 -36 -8 -74q0 -102 65.5 -155.5t174.5 -53.5q129 0 225 73t125 210z"/>
<glyph glyph-name="multiply" horiz-adv-x="600" unicode="×" d="M296 253l-138 174l68 56l137 -174l211 174l44 -56l-211 -174l139 -174l-68 -56l-138 175l-210 -175l-44 56z"/>
<glyph glyph-name="Oslash" horiz-adv-x="870" unicode="Ø" d="M780 542l-513 -406q65 -62 183 -62q129 0 225 73t125 210q8 43 8 74q0 64 -28 111zM237 173l514 405q-63 62 -183 62q-129 0 -225 -73t-125 -210q-8 -36 -8 -74q0 -67 27 -110zM66 -22l-27 38l110 87q-47 67 -47 164q0 38 10 90q14 72 50 136.5t93 119t143 87t189 32.5 q168 0 252 -84l112 88l28 -37l-110 -87q47 -72 47 -166q0 -39 -10 -89q-14 -72 -50 -136.5t-93 -119t-143 -87t-189 -32.5q-168 0 -253 85z"/>
<glyph glyph-name="Ugrave" horiz-adv-x="796" unicode="Ù" d="M505 770l-101 140h125l56 -140h-80zM131 270l92 444h106l-95 -457q-5 -22 -5 -49q0 -134 184 -134q102 0 168.5 45t86.5 138l95 457h106l-92 -444q-60 -288 -383 -288q-272 0 -272 205q0 38 9 83z"/>
<glyph glyph-name="Uacute" horiz-adv-x="796" unicode="Ú" d="M507 770l116 140h125l-161 -140h-80zM131 270l92 444h106l-95 -457q-5 -22 -5 -49q0 -134 184 -134q102 0 168.5 45t86.5 138l95 457h106l-92 -444q-60 -288 -383 -288q-272 0 -272 205q0 38 9 83z"/>
<glyph glyph-name="Ucircumflex" horiz-adv-x="796" unicode="Û" d="M640 770l-67 88l-105 -88h-97l160 140h106l100 -140h-97zM131 270l92 444h106l-95 -457q-5 -22 -5 -49q0 -134 184 -134q102 0 168.5 45t86.5 138l95 457h106l-92 -444q-60 -288 -383 -288q-272 0 -272 205q0 38 9 83z"/>
<glyph glyph-name="Udieresis" horiz-adv-x="796" unicode="Ü" d="M387 788l22 104h100l-22 -104h-100zM627 788l22 104h100l-22 -104h-100zM131 270l92 444h106l-95 -457q-5 -22 -5 -49q0 -134 184 -134q102 0 168.5 45t86.5 138l95 457h106l-92 -444q-60 -288 -383 -288q-272 0 -272 205q0 38 9 83z"/>
<glyph glyph-name="Yacute" horiz-adv-x="722" unicode="Ý" d="M476 770l116 140h125l-161 -140h-80zM442 389l305 325h129l-401 -415l-62 -299h-106l61 294l-226 420h135z"/>
<glyph glyph-name="Thorn" horiz-adv-x="722" unicode="Þ" d="M81 0l148 714h106l-25 -121h262q202 0 202 -150q0 -25 -6 -55q-23 -103 -95.5 -163t-182.5 -60h-269l-34 -165h-106zM240 257h255q138 0 167 129q4 22 4 31q0 39 -25.5 61.5t-75.5 22.5h-274z"/>
<glyph glyph-name="germandbls" horiz-adv-x="648" unicode="ß" d="M350 351l18 84q14 -2 21 -2h34q135 0 158 107q2 8 2 23q0 42 -33.5 63.5t-90.5 21.5q-154 0 -180 -128l-108 -520h-100l109 529q23 103 103 153t192 50q108 0 162.5 -42t54.5 -109q0 -20 -4 -37q-22 -105 -129 -141v-2q100 -29 100 -135q0 -26 -6 -57 q-19 -96 -102 -161.5t-204 -65.5q-25 0 -77 5l17 84q38 -5 60 -5q84 0 136 41.5t65 105.5q4 24 4 33q0 48 -30 73t-72 28z"/>
<glyph glyph-name="agrave" horiz-adv-x="648" unicode="à" d="M438 600l-101 140h125l56 -140h-80zM228 360h-94q30 96 103.5 139t194.5 43q56 0 100 -8.5t79 -36.5t35 -73q0 -9 -4 -31l-58 -282q-2 -12 -2 -15q0 -30 37 -30q21 0 36 4l-14 -70q-37 -6 -80 -6q-38 0 -57 13t-19 48q0 2 0.5 6t0.5 6q-37 -39 -105 -62t-135 -23 q-100 0 -142 35t-42 87q0 21 4 36q14 74 73 111.5t185 51.5l117 12q47 4 71.5 17t32.5 46q2 7 2 20q0 66 -135 66q-159 0 -184 -104zM510 207l13 67q-24 -21 -104 -31l-116 -14q-64 -9 -96 -27.5t-41 -58.5q-2 -10 -2 -15q0 -31 29 -49.5t78 -18.5q86 0 155.5 41t83.5 106z "/>
<glyph glyph-name="aacute" horiz-adv-x="648" unicode="á" d="M393 600l116 140h125l-161 -140h-80zM228 360h-94q30 96 103.5 139t194.5 43q56 0 100 -8.5t79 -36.5t35 -73q0 -9 -4 -31l-58 -282q-2 -12 -2 -15q0 -30 37 -30q21 0 36 4l-14 -70q-37 -6 -80 -6q-38 0 -57 13t-19 48q0 2 0.5 6t0.5 6q-37 -39 -105 -62t-135 -23 q-100 0 -142 35t-42 87q0 21 4 36q14 74 73 111.5t185 51.5l117 12q47 4 71.5 17t32.5 46q2 7 2 20q0 66 -135 66q-159 0 -184 -104zM510 207l13 67q-24 -21 -104 -31l-116 -14q-64 -9 -96 -27.5t-41 -58.5q-2 -10 -2 -15q0 -31 29 -49.5t78 -18.5q86 0 155.5 41t83.5 106z "/>
<glyph glyph-name="acircumflex" horiz-adv-x="648" unicode="â" d="M526 600l-67 88l-105 -88h-97l160 140h106l100 -140h-97zM228 360h-94q30 96 103.5 139t194.5 43q56 0 100 -8.5t79 -36.5t35 -73q0 -9 -4 -31l-58 -282q-2 -12 -2 -15q0 -30 37 -30q21 0 36 4l-14 -70q-37 -6 -80 -6q-38 0 -57 13t-19 48q0 2 0.5 6t0.5 6 q-37 -39 -105 -62t-135 -23q-100 0 -142 35t-42 87q0 21 4 36q14 74 73 111.5t185 51.5l117 12q47 4 71.5 17t32.5 46q2 7 2 20q0 66 -135 66q-159 0 -184 -104zM510 207l13 67q-24 -21 -104 -31l-116 -14q-64 -9 -96 -27.5t-41 -58.5q-2 -10 -2 -15q0 -31 29 -49.5 t78 -18.5q86 0 155.5 41t83.5 106z"/>
<glyph glyph-name="atilde" horiz-adv-x="648" unicode="ã" d="M299 609h-59q16 54 53.5 88.5t86.5 34.5q41 0 93 -24q44 -21 74 -21q37 0 56 45h59q-16 -54 -53.5 -88.5t-86.5 -34.5q-43 0 -93 24q-44 21 -75 21q-36 0 -55 -45zM228 360h-94q30 96 103.5 139t194.5 43q56 0 100 -8.5t79 -36.5t35 -73q0 -9 -4 -31l-58 -282 q-2 -12 -2 -15q0 -30 37 -30q21 0 36 4l-14 -70q-37 -6 -80 -6q-38 0 -57 13t-19 48q0 2 0.5 6t0.5 6q-37 -39 -105 -62t-135 -23q-100 0 -142 35t-42 87q0 21 4 36q14 74 73 111.5t185 51.5l117 12q47 4 71.5 17t32.5 46q2 7 2 20q0 66 -135 66q-159 0 -184 -104zM510 207 l13 67q-24 -21 -104 -31l-116 -14q-64 -9 -96 -27.5t-41 -58.5q-2 -10 -2 -15q0 -31 29 -49.5t78 -18.5q86 0 155.5 41t83.5 106z"/>
<glyph glyph-name="adieresis" horiz-adv-x="648" unicode="ä" d="M270 618l22 104h100l-22 -104h-100zM510 618l22 104h100l-22 -104h-100zM228 360h-94q30 96 103.5 139t194.5 43q56 0 100 -8.5t79 -36.5t35 -73q0 -9 -4 -31l-58 -282q-2 -12 -2 -15q0 -30 37 -30q21 0 36 4l-14 -70q-37 -6 -80 -6q-38 0 -57 13t-19 48q0 2 0.5 6t0.5 6 q-37 -39 -105 -62t-135 -23q-100 0 -142 35t-42 87q0 21 4 36q14 74 73 111.5t185 51.5l117 12q47 4 71.5 17t32.5 46q2 7 2 20q0 66 -135 66q-159 0 -184 -104zM510 207l13 67q-24 -21 -104 -31l-116 -14q-64 -9 -96 -27.5t-41 -58.5q-2 -10 -2 -15q0 -31 29 -49.5 t78 -18.5q86 0 155.5 41t83.5 106z"/>
<glyph glyph-name="aring" horiz-adv-x="648" unicode="å" d="M340 700q11 49 51.5 83t89.5 34q42 0 69 -26t27 -66q0 -13 -3 -25q-11 -49 -51.5 -83t-89.5 -34q-42 0 -69 26t-27 66q0 13 3 25zM520 700q1 4 1 11q0 21 -15 36.5t-36 15.5q-25 0 -48 -19t-28 -44q-1 -5 -1 -13q0 -23 14 -36.5t37 -13.5q25 0 48 19t28 44zM228 360h-94 q30 96 103.5 139t194.5 43q56 0 100 -8.5t79 -36.5t35 -73q0 -9 -4 -31l-58 -282q-2 -12 -2 -15q0 -30 37 -30q21 0 36 4l-14 -70q-37 -6 -80 -6q-38 0 -57 13t-19 48q0 2 0.5 6t0.5 6q-37 -39 -105 -62t-135 -23q-100 0 -142 35t-42 87q0 21 4 36q14 74 73 111.5t185 51.5 l117 12q47 4 71.5 17t32.5 46q2 7 2 20q0 66 -135 66q-159 0 -184 -104zM510 207l13 67q-24 -21 -104 -31l-116 -14q-64 -9 -96 -27.5t-41 -58.5q-2 -10 -2 -15q0 -31 29 -49.5t78 -18.5q86 0 155.5 41t83.5 106z"/>
<glyph glyph-name="ae" horiz-adv-x="1074" unicode="æ" d="M1081 232h-472q-2 -22 -2 -32q0 -67 36 -100.5t115 -33.5q125 0 188 93h106q-54 -88 -138 -132.5t-169 -44.5q-52 0 -89.5 7t-75.5 33.5t-58 73.5q-33 -42 -103.5 -78t-172.5 -36q-100 0 -142 35t-42 87q0 21 4 36q14 74 72.5 112.5t179.5 50.5l123 12q47 4 71.5 17 t32.5 46q2 7 2 20q0 66 -135 66q-159 0 -184 -104h-94q30 96 103.5 139t194.5 43q156 0 205 -88q92 88 225 88q111 0 170 -58.5t59 -159.5q0 -42 -8 -79zM625 310h366v10q0 65 -41.5 101.5t-110.5 36.5q-71 0 -130 -39.5t-84 -108.5zM510 207l9 47q-53 -13 -101 -17l-101 -7 q-70 -5 -106 -25.5t-45 -61.5q-2 -10 -2 -15q0 -31 29 -49.5t78 -18.5q86 0 155.5 41t83.5 106z"/>
<glyph glyph-name="ccedilla" horiz-adv-x="630" unicode="ç" d="M235 -101l-14 19l54 66q-47 4 -84 22q-108 53 -108 185q0 31 8 68q25 122 116 202.5t227 80.5q107 0 169.5 -46.5t62.5 -136.5v-10h-106v6q0 49 -34.5 76t-101.5 27q-93 0 -150 -53.5t-76 -142.5q-7 -35 -7 -57q0 -64 38 -101.5t113 -37.5q68 0 112.5 30t74.5 96h106 q-80 -169 -220 -199q-39 -9 -90 -11l-31 -38q15 4 44 4q31 0 49.5 -13t18.5 -37q0 -5 -2 -15q-10 -44 -49.5 -64.5t-92.5 -20.5t-98 14l22 47q30 -13 72 -13q22 0 40 8.5t21 22.5q0 1 0.5 2.5t0.5 2.5q0 24 -37 24q-20 0 -48 -7z"/>
<glyph glyph-name="egrave" horiz-adv-x="667" unicode="è" d="M417 600l-101 140h125l56 -140h-80zM674 232h-482q-2 -18 -2 -26q0 -65 47.5 -102.5t112.5 -37.5q126 0 189 93h106q-54 -88 -138 -132.5t-169 -44.5q-125 0 -189 59.5t-64 155.5q0 34 7 65q26 121 120.5 200.5t241.5 79.5q99 0 165 -52.5t66 -161.5q0 -38 -9 -83z M211 310h373v10q0 65 -41.5 101.5t-110.5 36.5q-72 0 -133.5 -40t-87.5 -108z"/>
<glyph glyph-name="eacute" horiz-adv-x="667" unicode="é" d="M404 600l116 140h125l-161 -140h-80zM674 232h-482q-2 -18 -2 -26q0 -65 47.5 -102.5t112.5 -37.5q126 0 189 93h106q-54 -88 -138 -132.5t-169 -44.5q-125 0 -189 59.5t-64 155.5q0 34 7 65q26 121 120.5 200.5t241.5 79.5q99 0 165 -52.5t66 -161.5q0 -38 -9 -83z M211 310h373v10q0 65 -41.5 101.5t-110.5 36.5q-72 0 -133.5 -40t-87.5 -108z"/>
<glyph glyph-name="ecircumflex" horiz-adv-x="667" unicode="ê" d="M548 600l-67 88l-105 -88h-97l160 140h106l100 -140h-97zM674 232h-482q-2 -18 -2 -26q0 -65 47.5 -102.5t112.5 -37.5q126 0 189 93h106q-54 -88 -138 -132.5t-169 -44.5q-125 0 -189 59.5t-64 155.5q0 34 7 65q26 121 120.5 200.5t241.5 79.5q99 0 165 -52.5t66 -161.5 q0 -38 -9 -83zM211 310h373v10q0 65 -41.5 101.5t-110.5 36.5q-72 0 -133.5 -40t-87.5 -108z"/>
<glyph glyph-name="edieresis" horiz-adv-x="667" unicode="ë" d="M288 618l22 104h100l-22 -104h-100zM528 618l22 104h100l-22 -104h-100zM674 232h-482q-2 -18 -2 -26q0 -65 47.5 -102.5t112.5 -37.5q126 0 189 93h106q-54 -88 -138 -132.5t-169 -44.5q-125 0 -189 59.5t-64 155.5q0 34 7 65q26 121 120.5 200.5t241.5 79.5 q99 0 165 -52.5t66 -161.5q0 -38 -9 -83zM211 310h373v10q0 65 -41.5 101.5t-110.5 36.5q-72 0 -133.5 -40t-87.5 -108z"/>
<glyph glyph-name="igrave" horiz-adv-x="222" unicode="ì" d="M191 600l-101 140h125l56 -140h-80zM61 0l108 524h100l-108 -524h-100z"/>
<glyph glyph-name="iacute" horiz-adv-x="222" unicode="í" d="M175 600l116 140h125l-161 -140h-80zM61 0l108 524h100l-108 -524h-100z"/>
<glyph glyph-name="icircumflex" horiz-adv-x="222" unicode="î" d="M316 600l-67 88l-105 -88h-97l160 140h106l100 -140h-97zM61 0l108 524h100l-108 -524h-100z"/>
<glyph glyph-name="idieresis" horiz-adv-x="222" unicode="ï" d="M65 618l22 104h100l-22 -104h-100zM305 618l22 104h100l-22 -104h-100zM61 0l108 524h100l-108 -524h-100z"/>
<glyph glyph-name="eth" horiz-adv-x="684" unicode="ð" d="M594 262q5 27 5 49q0 65 -38.5 106t-123.5 41q-100 0 -161.5 -58t-77.5 -138q-6 -25 -6 -50q0 -64 39.5 -105t123.5 -41q101 0 161 57.5t78 138.5zM266 606l123 50q-40 21 -93 38l80 56q63 -22 114 -53l130 53l34 -36l-118 -48q174 -130 174 -318q0 -36 -8 -78 q-27 -128 -121.5 -208t-242.5 -80q-125 0 -189 59.5t-64 155.5q0 34 7 65q24 117 125.5 198.5t223.5 81.5q83 0 124 -47l3 2q-46 74 -128 130l-141 -57z"/>
<glyph glyph-name="ntilde" horiz-adv-x="649" unicode="ñ" d="M305 609h-59q16 54 53.5 88.5t86.5 34.5q41 0 93 -24q44 -21 74 -21q37 0 56 45h59q-16 -54 -53.5 -88.5t-86.5 -34.5q-43 0 -93 24q-44 21 -75 21q-36 0 -55 -45zM61 0l108 524h100l-16 -79h2q82 97 225 97q86 0 136.5 -34.5t50.5 -104.5q0 -18 -5 -46l-74 -357h-100 l70 337q4 22 4 31q0 90 -134 90q-73 0 -131.5 -41t-73.5 -115l-62 -302h-100z"/>
<glyph glyph-name="ograve" horiz-adv-x="684" unicode="ò" d="M421 600l-101 140h125l56 -140h-80zM92 262q26 121 120.5 200.5t241.5 79.5q124 0 188.5 -59.5t64.5 -155.5q0 -34 -7 -65q-26 -120 -121 -200t-241 -80q-125 0 -189 59.5t-64 155.5q0 34 7 65zM594 262q5 27 5 49q0 65 -38.5 106t-123.5 41q-100 0 -161.5 -58 t-77.5 -138q-6 -25 -6 -50q0 -64 39.5 -105t123.5 -41q101 0 161 57.5t78 138.5z"/>
<glyph glyph-name="oacute" horiz-adv-x="684" unicode="ó" d="M417 600l116 140h125l-161 -140h-80zM92 262q26 121 120.5 200.5t241.5 79.5q124 0 188.5 -59.5t64.5 -155.5q0 -34 -7 -65q-26 -120 -121 -200t-241 -80q-125 0 -189 59.5t-64 155.5q0 34 7 65zM594 262q5 27 5 49q0 65 -38.5 106t-123.5 41q-100 0 -161.5 -58 t-77.5 -138q-6 -25 -6 -50q0 -64 39.5 -105t123.5 -41q101 0 161 57.5t78 138.5z"/>
<glyph glyph-name="ocircumflex" horiz-adv-x="684" unicode="ô" d="M563 600l-67 88l-105 -88h-97l160 140h106l100 -140h-97zM92 262q26 121 120.5 200.5t241.5 79.5q124 0 188.5 -59.5t64.5 -155.5q0 -34 -7 -65q-26 -120 -121 -200t-241 -80q-125 0 -189 59.5t-64 155.5q0 34 7 65zM594 262q5 27 5 49q0 65 -38.5 106t-123.5 41 q-100 0 -161.5 -58t-77.5 -138q-6 -25 -6 -50q0 -64 39.5 -105t123.5 -41q101 0 161 57.5t78 138.5z"/>
<glyph glyph-name="otilde" horiz-adv-x="684" unicode="õ" d="M325 609h-59q16 54 53.5 88.5t86.5 34.5q41 0 93 -24q44 -21 74 -21q37 0 56 45h59q-16 -54 -53.5 -88.5t-86.5 -34.5q-43 0 -93 24q-44 21 -75 21q-36 0 -55 -45zM92 262q26 121 120.5 200.5t241.5 79.5q124 0 188.5 -59.5t64.5 -155.5q0 -34 -7 -65q-26 -120 -121 -200 t-241 -80q-125 0 -189 59.5t-64 155.5q0 34 7 65zM594 262q5 27 5 49q0 65 -38.5 106t-123.5 41q-100 0 -161.5 -58t-77.5 -138q-6 -25 -6 -50q0 -64 39.5 -105t123.5 -41q101 0 161 57.5t78 138.5z"/>
<glyph glyph-name="odieresis" horiz-adv-x="684" unicode="ö" d="M296 618l22 104h100l-22 -104h-100zM536 618l22 104h100l-22 -104h-100zM92 262q26 121 120.5 200.5t241.5 79.5q124 0 188.5 -59.5t64.5 -155.5q0 -34 -7 -65q-26 -120 -121 -200t-241 -80q-125 0 -189 59.5t-64 155.5q0 34 7 65zM594 262q5 27 5 49q0 65 -38.5 106 t-123.5 41q-100 0 -161.5 -58t-77.5 -138q-6 -25 -6 -50q0 -64 39.5 -105t123.5 -41q101 0 161 57.5t78 138.5z"/>
<glyph glyph-name="divide" horiz-adv-x="600" unicode="÷" d="M325 460q6 29 31 49.5t54 20.5q25 0 41 -15.5t16 -39.5q0 -5 -2 -15q-6 -29 -30.5 -49.5t-53.5 -20.5q-25 0 -41 16t-16 40q0 9 1 14zM239 46q6 29 31 49.5t54 20.5q25 0 41 -15.5t16 -39.5q0 -5 -2 -15q-6 -29 -30.5 -49.5t-53.5 -20.5q-25 0 -41 16t-16 40q0 9 1 14z M90 211l18 84h506l-18 -84h-506z"/>
<glyph glyph-name="oslash" horiz-adv-x="684" unicode="ø" d="M583 384l-352 -275q40 -43 124 -43q101 0 161 57.5t78 138.5q5 21 5 50q0 44 -16 72zM209 140l352 275q-43 43 -124 43q-100 0 -161.5 -58t-77.5 -138q-5 -21 -5 -50q0 -44 16 -72zM644 480l86 67l23 -31l-83 -64q37 -52 37 -125q0 -34 -7 -65q-26 -120 -121 -200 t-241 -80q-126 0 -190 62l-86 -67l-23 31l84 65q-38 51 -38 125q0 33 7 64q26 121 120.5 200.5t241.5 79.5q122 0 190 -62z"/>
<glyph glyph-name="ugrave" horiz-adv-x="649" unicode="ù" d="M400 600l-101 140h125l56 -140h-80zM696 524l-108 -524h-100l16 79h-2q-82 -97 -225 -97q-86 0 -136.5 34.5t-50.5 104.5q0 18 5 46l74 357h100l-70 -337q-4 -22 -4 -31q0 -90 134 -90q73 0 131.5 41t73.5 115l62 302h100z"/>
<glyph glyph-name="uacute" horiz-adv-x="649" unicode="ú" d="M401 600l116 140h125l-161 -140h-80zM696 524l-108 -524h-100l16 79h-2q-82 -97 -225 -97q-86 0 -136.5 34.5t-50.5 104.5q0 18 5 46l74 357h100l-70 -337q-4 -22 -4 -31q0 -90 134 -90q73 0 131.5 41t73.5 115l62 302h100z"/>
<glyph glyph-name="ucircumflex" horiz-adv-x="649" unicode="û" d="M531 600l-67 88l-105 -88h-97l160 140h106l100 -140h-97zM696 524l-108 -524h-100l16 79h-2q-82 -97 -225 -97q-86 0 -136.5 34.5t-50.5 104.5q0 18 5 46l74 357h100l-70 -337q-4 -22 -4 -31q0 -90 134 -90q73 0 131.5 41t73.5 115l62 302h100z"/>
<glyph glyph-name="udieresis" horiz-adv-x="649" unicode="ü" d="M273 618l22 104h100l-22 -104h-100zM513 618l22 104h100l-22 -104h-100zM696 524l-108 -524h-100l16 79h-2q-82 -97 -225 -97q-86 0 -136.5 34.5t-50.5 104.5q0 18 5 46l74 357h100l-70 -337q-4 -22 -4 -31q0 -90 134 -90q73 0 131.5 41t73.5 115l62 302h100z"/>
<glyph glyph-name="yacute" horiz-adv-x="574" unicode="ý" d="M373 600l116 140h125l-161 -140h-80zM312 110l263 414h112l-401 -614q-52 -81 -94 -105.5t-115 -24.5q-42 0 -75 4l17 84q5 0 24 -2t33 -2q45 0 68.5 15t57.5 65l33 48l-132 532h115z"/>
<glyph glyph-name="thorn" horiz-adv-x="685" unicode="þ" d="M19 -202l191 922h100l-56 -269h2q36 40 96.5 62.5t120.5 22.5q104 0 169 -56t65 -154q0 -33 -7 -67q-27 -128 -123 -202.5t-219 -74.5q-62 0 -111.5 22t-70.5 63h-2l-55 -269h-100zM594 259q6 25 6 50q0 64 -39 103.5t-119 39.5q-96 0 -156 -55.5t-78 -137.5 q-5 -23 -5 -50q0 -67 42 -105t117 -38q88 0 150.5 51.5t81.5 141.5z"/>
<glyph glyph-name="OE" horiz-adv-x="1167" unicode="Œ" d="M647 225l58 278q1 4 1 12q0 44 -46 84.5t-129 40.5q-43 0 -85.5 -13.5t-86 -43.5t-78 -88t-50.5 -138q-11 -53 -11 -90q0 -54 17.5 -93t46.5 -60t61 -30.5t68 -9.5q82 0 152.5 51t81.5 100zM604 0l16 81h-2q-98 -99 -237 -99q-133 0 -199.5 80t-66.5 201q0 42 10 94 q14 70 48.5 135.5t85.5 119.5t123.5 87t154.5 33q145 0 200 -88l15 70h512l-19 -92h-415l-43 -207h401l-19 -92h-401l-48 -231h423l-19 -92h-520z"/>
<glyph glyph-name="oe" horiz-adv-x="1111" unicode="œ" d="M1129 232h-466q-2 -22 -2 -32q0 -70 41 -102t103 -32q126 0 189 93h106q-54 -88 -138 -132.5t-169 -44.5q-159 0 -213 104q-99 -104 -251 -104q-124 0 -184.5 57t-60.5 151q0 32 8 72q26 128 125.5 204t227.5 76q155 0 215 -108q108 108 250 108q111 0 170 -58.5 t59 -159.5q0 -42 -8 -79zM576 267q5 27 5 46q0 69 -42 107t-110 38q-91 0 -151.5 -55t-79.5 -142q-5 -21 -5 -49q0 -66 40 -106t110 -40q93 0 154.5 57.5t78.5 143.5zM679 310h360v10q0 65 -41.5 101.5t-110.5 36.5q-70 0 -126 -38.5t-82 -109.5z"/>
<glyph glyph-name="Scaron" horiz-adv-x="667" unicode="Š" d="M488 822l105 88h97l-160 -140h-106l-100 140h97zM64 235h106q-3 -18 -3 -33q0 -69 57 -98.5t143 -29.5q87 0 146.5 32t71.5 89q3 12 3 22q0 66 -114 84l-156 27q-177 29 -177 147q0 20 4 40q21 100 108.5 158.5t222.5 58.5q71 0 126.5 -15.5t94.5 -58.5t39 -109 q0 -20 -3 -41h-106v11q0 121 -184 121q-66 0 -122 -29.5t-69 -87.5q-2 -12 -2 -17q0 -59 100 -77l168 -30q2 0 16.5 -3.5t21 -5t22.5 -6t25 -8.5t23.5 -11t23.5 -14t19.5 -17.5t16.5 -22t10 -26t4 -31.5q0 -15 -5 -38q-13 -65 -50 -112.5t-88 -73t-105 -37t-112 -11.5 q-57 0 -105 9.5t-89 31t-64.5 60.5t-23.5 93q0 28 6 59z"/>
<glyph glyph-name="scaron" horiz-adv-x="593" unicode="š" d="M421 652l105 88h97l-160 -140h-106l-100 140h97zM65 165h100q-2 -12 -2 -18q0 -37 34 -62t111 -25q159 0 177 82q2 12 2 16q0 42 -86 54l-161 22q-52 8 -84 36.5t-32 75.5q0 12 3 27q17 80 90 124.5t184 44.5q221 0 221 -153q0 -15 -1 -23h-100q1 4 1 13q0 38 -34.5 61.5 t-103.5 23.5q-56 0 -101 -19t-54 -61q-2 -12 -2 -16q0 -20 17 -31.5t59 -17.5l138 -19q157 -24 157 -112q0 -14 -3 -27q-18 -89 -97 -134t-203 -45q-232 0 -232 152q0 20 2 31z"/>
<glyph glyph-name="Ydieresis" horiz-adv-x="722" unicode="Ÿ" d="M346 788l22 104h100l-22 -104h-100zM586 788l22 104h100l-22 -104h-100zM442 389l305 325h129l-401 -415l-62 -299h-106l61 294l-226 420h135z"/>
<glyph glyph-name="circumflex" horiz-adv-x="222" unicode="ˆ" d="M321 600l-67 88l-105 -88h-97l160 140h106l100 -140h-97z"/>
<glyph glyph-name="tilde" horiz-adv-x="222" unicode="˜" d="M98 609h-59q16 54 53.5 88.5t86.5 34.5q41 0 93 -24q44 -21 74 -21q37 0 56 45h59q-16 -54 -53.5 -88.5t-86.5 -34.5q-43 0 -93 24q-44 21 -75 21q-36 0 -55 -45z"/>
<glyph glyph-name="uni0394" horiz-adv-x="680" unicode="Δ" d="M586 0h-658l426 712h99zM478 87l-92 516l-304 -516h396z"/>
<glyph glyph-name="uni03BC" horiz-adv-x="649" unicode="μ" d="M19 -202l150 726h100l-70 -337q-4 -22 -4 -31q0 -90 134 -90q73 0 131.5 41t73.5 115l62 302h100l-108 -524h-100l16 79h-2q-82 -97 -220 -97q-77 0 -117 41l-46 -225h-100z"/>
<glyph glyph-name="pi" horiz-adv-x="582" unicode="π" d="M581 481l-19 -85h-78l-55 -261q-7 -30 -7 -41q0 -24 31 -24q12 0 45 11l-14 -69q-44 -18 -79 -18q-80 0 -80 62q0 18 9 63l59 277h-222l-84 -396h-91l84 396h-71l18 85h554z"/>
<glyph glyph-name="endash" horiz-adv-x="500" unicode="–" d="M49 236l17 84h500l-17 -84h-500z"/>
<glyph glyph-name="emdash" horiz-adv-x="1000" unicode="—" d="M49 236l17 84h1000l-17 -84h-1000z"/>
<glyph glyph-name="quoteleft" horiz-adv-x="334" unicode="‘" d="M197 445l21 102q13 64 53.5 110t105.5 57l-10 -49q-33 -9 -51.5 -32t-30.5 -72h60l-24 -116h-124z"/>
<glyph glyph-name="quotesinglbase" horiz-adv-x="334" unicode="‚" d="M73 -153l10 49q32 9 51 32.5t31 71.5h-60l24 116h124l-22 -102q-13 -64 -53 -110t-105 -57z"/>
<glyph glyph-name="quotedblleft" horiz-adv-x="481" unicode="“" d="M376 445l21 102q13 64 53.5 110t105.5 57l-10 -49q-33 -9 -51.5 -32t-30.5 -72h60l-24 -116h-124zM165 445l21 102q13 64 53.5 110t105.5 57l-10 -49q-33 -9 -51.5 -32t-30.5 -72h60l-24 -116h-124z"/>
<glyph glyph-name="quotedblright" horiz-adv-x="481" unicode="”" d="M376 445l10 49q33 9 51.5 32t30.5 72h-60l24 116h124l-21 -102q-13 -64 -53.5 -110t-105.5 -57zM165 445l10 49q33 9 51.5 32t30.5 72h-60l24 116h124l-21 -102q-13 -64 -53.5 -110t-105.5 -57z"/>
<glyph glyph-name="dagger" d="M134 390l19 92h231l48 232h100l-48 -232h231l-19 -92h-231l-121 -580h-100l121 580h-231z" unicode="†"/>
<glyph glyph-name="daggerdbl" d="M308 118l60 288h-231l17 84h231l47 224h100l-47 -224h231l-17 -84h-231l-60 -288h231l-17 -84h-231l-47 -224h-100l47 224h-231l17 84h231z" unicode="‡"/>
<glyph glyph-name="ellipsis" horiz-adv-x="1000" unicode="…" d="M105 0l24 116h124l-24 -116h-124zM438 0l24 116h124l-24 -116h-124zM771 0l24 116h124l-24 -116h-124z"/>
<glyph glyph-name="perthousand" horiz-adv-x="1167" unicode="‰" d="M853 172q17 84 69.5 136t140.5 52q138 0 138 -130q0 -28 -6 -58q-18 -85 -70 -136.5t-140 -51.5q-71 0 -105 35t-34 95q0 23 7 58zM1117 172q6 27 6 47q0 75 -73 75q-92 0 -119 -122q-6 -27 -6 -47q0 -75 74 -75q91 0 118 122zM468 172q17 84 69.5 136t140.5 52 q138 0 138 -130q0 -28 -6 -58q-18 -85 -70 -136.5t-140 -51.5q-71 0 -105 35t-34 95q0 23 7 58zM732 172q6 27 6 47q0 75 -73 75q-92 0 -119 -122q-6 -27 -6 -47q0 -75 74 -75q91 0 118 122zM379 522q6 27 6 47q0 75 -74 75q-91 0 -118 -122q-6 -27 -6 -47q0 -75 74 -75 q91 0 118 122zM115 522q17 84 69.5 136t140.5 52q138 0 138 -130q0 -28 -6 -58q-18 -85 -70 -136.5t-140 -51.5q-72 0 -105.5 34.5t-33.5 94.5q0 22 7 59zM148 -16l548 726h84l-548 -726h-84z"/>
<glyph glyph-name="guilsinglleft" horiz-adv-x="334" unicode="‹" d="M123 226l22 104l208 133l-21 -101l-137 -84l102 -84l-21 -101z"/>
<glyph glyph-name="guilsinglright" horiz-adv-x="334" unicode="›" d="M253 278l-101 84l21 101l152 -133l-22 -104l-207 -133l21 101z"/>
<glyph glyph-name="fraction" horiz-adv-x="167" unicode="⁄" d="M-160 -16l547 726h84l-547 -726h-84z"/>
<glyph glyph-name="Euro" d="M779 650l-61 -79q-91 48 -170 48q-172 0 -257 -170h355l-40 -60h-340l-13 -56h324l-40 -60h-291v-9q0 -92 48 -142t143 -50q60 0 110 20t119 64l-22 -106q-59 -37 -109.5 -51.5t-116.5 -14.5q-136 0 -207.5 67t-71.5 194q0 18 1 28h-72l40 60h41l13 56h-72l40 60h54 q56 125 155.5 192t228.5 67q114 0 211 -58z" unicode="€"/>
<glyph glyph-name="trademark" horiz-adv-x="990" unicode="™" d="M206 302l72 346h-124l14 66h332l-14 -66h-124l-72 -346h-84zM878 302l68 328h-2l-189 -328h-56l-53 328h-2l-68 -328h-78l86 412h117l51 -292l173 292h117l-86 -412h-78z"/>
<glyph glyph-name="partialdiff" horiz-adv-x="533" unicode="∂" d="M470 360q0 -69 -10 -128t-35 -117.5t-75.5 -92.5t-123.5 -34q-95 0 -153.5 65t-58.5 161q0 93 57 155.5t150 62.5q82 0 153 -66l1 34v10q0 41 -9 80t-27 75.5t-51.5 58.5t-76.5 22q-54 0 -116 -48l-51 60q80 63 164 63q73 0 126 -32t81.5 -86.5t41.5 -114.5t13 -128z M371 284q-61 75 -137 75q-61 0 -94.5 -43.5t-33.5 -105.5q0 -61 32 -105.5t91 -44.5q39 0 68.5 22t44.5 58t22 72t7 72z"/>
<glyph glyph-name="product" horiz-adv-x="729" unicode="∏" d="M665 -214h-96v913h-408v-913h-96v1000h600v-1000z"/>
<glyph glyph-name="summation" horiz-adv-x="631" unicode="∑" d="M606 -214h-581v77l312 428l-299 419v76h556v-87h-429l287 -407l-306 -419h460v-87z"/>
<glyph glyph-name="minus" horiz-adv-x="600" unicode="−" d="M90 211l18 84h506l-18 -84h-506z"/>
<glyph glyph-name="radical" horiz-adv-x="521" unicode="√" d="M505 786l-211 -1000h-91l-157 325l-48 -23l-36 75l131 61l140 -296l176 858h96z"/>
<glyph glyph-name="infinity" horiz-adv-x="787" unicode="∞" d="M708 259q0 -72 -43 -121t-114 -49q-91 0 -192 111q-2 -2 -20.5 -19.5t-22 -21t-20 -17.5t-23.5 -18t-22.5 -13t-26.5 -12t-26 -6t-31 -3q-71 0 -115 48t-44 119q0 72 43 120t114 48q56 0 99.5 -30t94.5 -86q33 37 55 57.5t60 40t76 19.5q71 0 114.5 -48t43.5 -119z M631 256q0 39 -21.5 63.5t-59.5 24.5q-24 0 -53.5 -17t-45 -31t-42.5 -41q78 -84 143 -84q37 0 58 24t21 61zM309 255q-2 1 -11.5 10.5t-12.5 12t-13 11t-14.5 12t-14 11t-16 10.5t-15.5 8t-16 7t-15.5 4t-16.5 2q-36 0 -57 -25t-21 -62q0 -39 21.5 -61.5t59.5 -22.5 q66 0 142 83z"/>
<glyph glyph-name="approxequal" horiz-adv-x="593" unicode="≈" d="M475 433h60q-7 -68 -41 -113.5t-98 -45.5q-43 0 -138.5 35t-124.5 35q-27 0 -46 -22t-23 -51h-61q7 67 40.5 113.5t97.5 46.5q44 0 135 -34t130 -34q56 0 69 70zM473 239h61q-7 -68 -41 -113.5t-98 -45.5q-44 0 -139.5 35t-123.5 35t-45.5 -21t-23.5 -51h-62 q7 66 40.5 112.5t97.5 46.5q44 0 135.5 -34t130.5 -34q55 0 68 70z"/>
<glyph glyph-name="notequal" horiz-adv-x="593" unicode="≠" d="M526 105h-286l-77 -149l-79 40l57 109h-130v89h176l63 122h-239v89h284l78 151l78 -40l-57 -111h132v-89h-178l-62 -122h240v-89z"/>
<glyph glyph-name="lessequal" horiz-adv-x="593" unicode="≤" d="M526 93l-515 177v91l515 182v-95l-392 -132l392 -128v-95zM526 -33h-515v90h515v-90z"/>
<glyph glyph-name="greaterequal" horiz-adv-x="593" unicode="≥" d="M526 270l-515 -177v95l392 128l-392 132v95l515 -182v-91zM526 -33h-515v90h515v-90z"/>
<glyph glyph-name="lozenge" horiz-adv-x="593" unicode="◊" d="M514 356l-175 -391h-86l-174 391l174 391h86zM421 356l-125 300l-125 -300l125 -301z"/>
</font>
</defs>
</svg>
